<svg id="Layer_1" data-name="Layer 1" xmlns="http://www.w3.org/2000/svg" viewBox="0 0 108.08 51.36"><defs><style>.cls-1{fill:#387d44;}.cls-2{isolation:isolate;}.cls-3{fill:#fff;}</style></defs><title>pl</title><g id="p-label"><path class="cls-1" d="M25.68 0H82.4a25.68 25.68 0 0 1 25.68 25.68A25.68 25.68 0 0 1 82.4 51.36H25.68A25.68 25.68 0 0 1 0 25.68 25.68 25.68 0 0 1 25.68 0z"/><g class="cls-2"><path class="cls-3" d="M36.07 12.71a44.88 44.88 0 0 1 7.42-.5c3.38 0 5.79.65 7.42 1.94a7.09 7.09 0 0 1 2.59 5.62 7.75 7.75 0 0 1-2.23 5.76c-1.87 1.76-4.64 2.56-7.88 2.56A13.78 13.78 0 0 1 41.5 28v8.68h-5.43V12.71zm5.44 11a8.35 8.35 0 0 0 1.84.14c2.92 0 4.72-1.48 4.72-4 0-2.23-1.55-3.56-4.28-3.56a9.38 9.38 0 0 0-2.27.22v7.16zM57 12.39h5.51V32h9.65v4.61H57V12.39z"/></g></g></svg>