<svg id="Layer_1" data-name="Layer 1" xmlns="http://www.w3.org/2000/svg" viewBox="0 0 992.74 758.9"><defs><style>.cls-1{fill:#d14739;}.cls-2,.cls-8{fill:#fff;}.cls-3{fill:#387d44;}.cls-4{fill:#b2b212;}.cls-5{fill:#277fbe;}.cls-6{fill:#7f878e;}.cls-7{fill:#e79139;}.cls-8{stroke:#000;stroke-miterlimit:10;}</style></defs><title>boston_t</title><g id="wline"><rect class="cls-1" width="108.08" height="51.36" rx="25.68" ry="25.68"/><g id="_Line_" data-name="&lt;Line&gt;"><path class="cls-1" d="M122.98 82.27l783.08 250.77M118.2 99.62l20.94 6.71 57 18.25 84.3 27 102.85 32.94 112.65 36.08L609.65 257l105.6 33.82 89.65 28.71 64.49 20.65c10.18 3.26 20.32 6.78 30.58 9.79.44.13.88.28 1.32.42 9 2.87 20-3.36 22.14-12.57a18.4 18.4 0 0 0-12.57-22.14l-20.94-6.71-57-18.25-84.3-27-102.86-32.93-112.65-36.08L419.4 158.3l-105.6-33.82-89.65-28.71-64.48-20.64c-10.18-3.26-20.32-6.78-30.58-9.79-.44-.13-.88-.28-1.32-.42-9-2.87-20 3.36-22.14 12.57a18.4 18.4 0 0 0 12.57 22.14z"/></g><path class="cls-2" d="M37.42 38.52l-5.76-24.26h5.87l1.84 10c.54 2.88 1 6 1.44 8.46h.07c.4-2.63 1-5.54 1.58-8.53l2.05-9.93h5.83l1.94 10.22c.54 2.84.94 5.44 1.3 8.13h.07c.36-2.7.9-5.54 1.4-8.42l2-9.93h5.58l-6.26 24.26h-5.94l-2.05-10.44c-.47-2.45-.86-4.72-1.15-7.49h-.07c-.43 2.74-.83 5-1.4 7.49l-2.3 10.44h-6zM65.47 14.25h5.51V33.9h9.65v4.61H65.47V14.25z"/></g><g id="pline"><rect class="cls-3" x="819.63" y="442.48" width="108.08" height="51.36" rx="25.68" ry="25.68"/><path class="cls-4" d="M108.08 226.65l668.85 214.19"/><path class="cls-3" d="M103.3 244.01l17.91 5.74 48.75 15.61 71.7 23 87.89 28.14 96.29 30.83 97.21 31.09 90.2 28.89 76.63 24.54 55.1 17.65c8.68 2.78 17.33 5.81 26.09 8.35.37.11.74.24 1.11.36 9 2.87 20-3.36 22.14-12.57a18.4 18.4 0 0 0-12.57-22.14l-17.91-5.74-48.79-15.63-71.7-23-87.87-28.1-96.29-30.83L362 289.07l-90.2-28.89-76.63-24.54L140.05 218c-8.68-2.78-17.33-5.81-26.09-8.35-.37-.11-.74-.24-1.11-.36-9-2.87-20 3.36-22.14 12.57A18.4 18.4 0 0 0 103.28 244z"/><path class="cls-2" d="M855.7 455.18a44.89 44.89 0 0 1 7.41-.5c3.38 0 5.8.65 7.42 1.94a7.09 7.09 0 0 1 2.59 5.62 7.76 7.76 0 0 1-2.23 5.76c-1.87 1.76-4.64 2.56-7.88 2.56a13.75 13.75 0 0 1-1.87-.11v8.68h-5.44v-23.95zm5.44 11a8.41 8.41 0 0 0 1.84.14c2.92 0 4.71-1.48 4.71-4 0-2.23-1.55-3.56-4.28-3.56a9.32 9.32 0 0 0-2.27.22v7.16zM876.62 454.86h5.51v19.65h9.65v4.62h-15.15v-24.27z"/></g><g id="eline"><rect class="cls-5" x="284.49" y="707.55" width="108.08" height="51.36" rx="25.68" ry="25.68"/><path class="cls-5" d="M398 215.22l.08 457.29M380.05 215.21v400.92c0 18.5-.52 37.09 0 55.59v.78c0 9.42 8.28 18.44 18 18s18-7.91 18-18V271.59c0-18.5.52-37.09 0-55.59v-.78c0-9.42-8.28-18.44-18-18s-18 7.91-18 18z"/><path class="cls-2" d="M337.7 735.75h-8.93v5.76h10v4.5h-15.5v-24.27h15v4.5h-9.47v5h8.93v4.46zM342.49 721.74H348v19.65h9.65V746h-15.16v-24.26z"/></g><g id="lline"><rect class="cls-6" x="740.27" y="681.08" width="108.08" height="51.36" rx="25.68" ry="25.68"/><path class="cls-4" d="M531.59 678.42l241.34-98.51"/><path class="cls-6" d="M536.38 695.78l81.6-33.31 130-53.06 29.75-12.14c8.68-3.54 15.81-12.13 12.57-22.14-2.71-8.38-12.81-16.38-22.14-12.57l-81.6 33.31-130 53.06-29.75 12.14c-8.68 3.54-15.81 12.13-12.57 22.14 2.71 8.38 12.81 16.38 22.14 12.57z"/><path class="cls-2" d="M780.05 694.88h5.51v19.65h9.65v4.6h-15.16v-24.25zM798.46 694.88h5.51v19.65h9.65v4.6h-15.16v-24.25z"/></g><g id="hline"><path class="cls-5" d="M234.98 310.51l.03 163.44"/><path class="cls-7" d="M216.99 310.51v163.44c0 9.42 8.28 18.44 18 18s18-7.91 18-18V310.51c0-9.42-8.28-18.44-18-18s-18 7.91-18 18z"/><rect class="cls-7" x="112.37" y="514.04" width="108.08" height="51.36" rx="25.68" ry="25.68"/><path class="cls-2" d="M151.5 528.24v9.32h9v-9.32h5.55v24.26h-5.47v-10.15h-9v10.15h-5.51v-24.26h5.51zM170.79 528.24h5.51v19.65h9.65v4.61h-15.16v-24.26z"/></g><g id="w06"><circle class="cls-2" cx="129.08" cy="84.23" r="14.53"/><path d="M153.32 50.36a30 30 0 0 1 4.94-.34 7.76 7.76 0 0 1 4.94 1.3 4.73 4.73 0 0 1 1.73 3.74 5.17 5.17 0 0 1-1.49 3.84 7.5 7.5 0 0 1-5.26 1.7 9.15 9.15 0 0 1-1.25-.07v5.78h-3.62v-16zm3.62 7.34a5.6 5.6 0 0 0 1.22.1c1.94 0 3.14-1 3.14-2.64 0-1.49-1-2.38-2.86-2.38a6.22 6.22 0 0 0-1.51.14v4.78zM169.6 62.13l-1.15 4.15h-3.8l4.95-16.15h4.8l5 16.18h-3.94l-1.23-4.18h-4.63zm4.1-2.74l-1-3.43c-.29-1-.58-2.16-.82-3.12-.24 1-.48 2.18-.74 3.12l-1 3.43h3.58zM181.57 50.13h3.67v13.1h6.43v3.07h-10.1V50.13zM197.75 62.13l-1.15 4.15h-3.79l4.94-16.15h4.8l5 16.18h-3.94l-1.23-4.18h-4.63zm4.1-2.74l-1-3.43c-.29-1-.58-2.16-.82-3.12-.24 1-.48 2.18-.74 3.12l-1 3.43h3.58zM209.72 66.32V50.13h4.27l3.36 5.93a46.9 46.9 0 0 1 2.64 5.54h.06a60 60 0 0 1-.31-6.74v-4.73h3.36v16.18h-3.84l-3.44-6.18a60 60 0 0 1-2.81-5.71h-.07c.1 2.14.14 4.42.14 7.06v4.87h-3.36zM229.4 53.22h-4.35v-3.09h12.43v3.07h-4.43v13.1h-3.67V53.2zM243.11 50.13v16.18h-3.67V50.13h3.67zM246.27 50.36a32.16 32.16 0 0 1 4.87-.34c2.4 0 4.08.36 5.23 1.27a4.11 4.11 0 0 1 1.49 3.38 4.29 4.29 0 0 1-2.86 4v.07c1.13.46 1.75 1.54 2.16 3 .5 1.82 1 3.94 1.32 4.56h-3.73a20.28 20.28 0 0 1-1.13-3.77c-.43-2-1.13-2.57-2.62-2.59h-1.1v6.36h-3.62v-16zm3.62 7h1.44c1.82 0 2.9-.91 2.9-2.33s-1-2.23-2.69-2.26a9.16 9.16 0 0 0-1.66.12v4.46zM267.54 53.22h-4.34v-3.09h12.43v3.07h-4.42v13.1h-3.67V53.2zM287.19 59.48h-6v3.84h6.65v3h-10.27V50.13h10v3h-6.31v3.36h6v3zM302.27 65.87a10.43 10.43 0 0 1-4.15.7c-5.59 0-8.47-3.48-8.47-8.09 0-5.52 3.94-8.59 8.83-8.59a9.53 9.53 0 0 1 4 .72l-.74 2.9a7.9 7.9 0 0 0-3.07-.6c-2.9 0-5.16 1.75-5.16 5.35 0 3.24 1.92 5.28 5.18 5.28a9.14 9.14 0 0 0 3-.53zM308.34 50.13v6.22h6v-6.22h3.71v16.18h-3.65v-6.77h-6v6.77h-3.67V50.13h3.67zM321.2 66.32V50.13h4.27l3.36 5.93a47 47 0 0 1 2.64 5.54h.07a60 60 0 0 1-.31-6.74v-4.73h3.36v16.18h-3.84l-3.45-6.18a60 60 0 0 1-2.81-5.71h-.07c.1 2.14.14 4.42.14 7.06v4.87h-3.36zM352.57 58.07c0 5.3-3.22 8.52-7.94 8.52s-7.61-3.62-7.61-8.23c0-4.85 3.1-8.47 7.87-8.47 4.97-.01 7.68 3.71 7.68 8.18zm-11.69.22c0 3.17 1.49 5.4 3.94 5.4s3.89-2.35 3.89-5.5c0-2.9-1.39-5.4-3.91-5.4s-3.92 2.34-3.92 5.49zM354.97 50.13h3.67v13.1h6.41v3.07h-10.1V50.13zM381.13 58.07c0 5.3-3.22 8.52-7.94 8.52s-7.61-3.62-7.61-8.23c0-4.85 3.1-8.47 7.87-8.47 4.97-.01 7.68 3.71 7.68 8.18zm-11.69.22c0 3.17 1.49 5.4 3.94 5.4s3.89-2.35 3.89-5.5c0-2.9-1.39-5.4-3.91-5.4s-3.92 2.34-3.92 5.49zM397.05 65.58a18.1 18.1 0 0 1-5.4.91c-3 0-5.09-.74-6.58-2.18a7.83 7.83 0 0 1-2.28-5.88c0-5.38 3.94-8.45 9.24-8.45a11.14 11.14 0 0 1 4.49.79l-.77 2.93a9 9 0 0 0-3.77-.7c-3 0-5.35 1.73-5.35 5.23 0 3.34 2.09 5.3 5.09 5.3a4.9 4.9 0 0 0 1.8-.24v-3.38h-2.47v-2.86h6v8.52zM403.57 50.13v16.18h-3.67V50.13h3.67zM416.36 59.48h-6v3.84h6.69v3h-10.31V50.13h10v3h-6.31v3.36h6v3zM419.67 62.56a9.33 9.33 0 0 0 4.06 1c1.68 0 2.57-.7 2.57-1.75s-.77-1.58-2.71-2.28c-2.69-.94-4.44-2.42-4.44-4.78 0-2.76 2.3-4.87 6.12-4.87a9.91 9.91 0 0 1 4.13.82l-.82 3a7.69 7.69 0 0 0-3.38-.77c-1.58 0-2.35.72-2.35 1.56 0 1 .91 1.49 3 2.28 2.86 1.06 4.2 2.54 4.2 4.82 0 2.71-2.09 5-6.53 5a10.59 10.59 0 0 1-4.58-1z"/></g><g id="w05"><circle class="cls-2" cx="274.32" cy="130.74" r="14.53"/><path d="M303.54 110.77a15.06 15.06 0 0 1-5 .89 7.6 7.6 0 0 1-8.3-8.16c0-4.82 3.34-8.35 8.76-8.35a10 10 0 0 1 4 .74l-.5 1.7a8.38 8.38 0 0 0-3.58-.7c-3.94 0-6.5 2.45-6.5 6.5s2.47 6.53 6.24 6.53a6.81 6.81 0 0 0 2.78-.43v-4.82h-3.29v-1.68h5.33v7.78zM317.29 105.59c0 4.3-3 6.17-5.78 6.17-3.14 0-5.57-2.3-5.57-6 0-3.89 2.54-6.17 5.76-6.17s5.59 2.44 5.59 6zm-9.22.12c0 2.54 1.46 4.46 3.53 4.46s3.53-1.9 3.53-4.51c0-2-1-4.46-3.48-4.46s-3.6 2.3-3.6 4.51zM330.47 105.59c0 4.3-3 6.17-5.78 6.17-3.14 0-5.57-2.3-5.57-6 0-3.89 2.54-6.17 5.76-6.17s5.59 2.44 5.59 6zm-9.22.12c0 2.54 1.46 4.46 3.53 4.46s3.53-1.9 3.53-4.51c0-2-1-4.46-3.48-4.46s-3.58 2.3-3.58 4.51zM343.14 99.87c0 .84-.1 1.78-.1 3.19v6.74c0 2.66-.53 4.3-1.66 5.3a6.16 6.16 0 0 1-4.22 1.39 7.5 7.5 0 0 1-3.86-1l.53-1.61a6.55 6.55 0 0 0 3.41.91c2.16 0 3.74-1.13 3.74-4.06v-1.3a4.15 4.15 0 0 1-3.7 1.94c-2.88 0-4.94-2.45-4.94-5.66 0-3.94 2.57-6.17 5.23-6.17a3.86 3.86 0 0 1 3.62 2l.1-1.75h1.85zm-2.18 4.58a3.09 3.09 0 0 0-3.07-3.19c-2 0-3.46 1.7-3.46 4.39 0 2.28 1.15 4.18 3.43 4.18a3.09 3.09 0 0 0 2.93-2.16 3.67 3.67 0 0 0 .17-1.13v-2.09zM346.55 94.45h2.11v17h-2.11v-17zM353.39 106.07a3.72 3.72 0 0 0 4 4 7.64 7.64 0 0 0 3.22-.6l.36 1.51a9.41 9.41 0 0 1-3.86.72c-3.58 0-5.71-2.35-5.71-5.86s2.06-6.26 5.45-6.26c3.79 0 4.8 3.34 4.8 5.47a8 8 0 0 1-.07 1h-8.16zm6.19-1.51c0-1.34-.55-3.43-2.93-3.43-2.14 0-3.07 2-3.24 3.43h6.17z"/></g><g id="w03"><circle class="cls-2" cx="581.62" cy="229.14" r="14.53"/><path d="M609.05 207.73a10.36 10.36 0 0 1-4.27.77c-4.56 0-8-2.88-8-8.19 0-5.06 3.43-8.5 8.45-8.5a8.67 8.67 0 0 1 3.84.72l-.5 1.7a7.6 7.6 0 0 0-3.26-.67c-3.79 0-6.31 2.42-6.31 6.67 0 4 2.28 6.5 6.22 6.5a8.36 8.36 0 0 0 3.41-.67zM621.87 202.36c0 4.3-3 6.17-5.79 6.17-3.14 0-5.57-2.3-5.57-6 0-3.89 2.54-6.17 5.76-6.17s5.6 2.45 5.6 6zm-9.22.12c0 2.54 1.46 4.46 3.53 4.46s3.53-1.9 3.53-4.51c0-2-1-4.46-3.48-4.46s-3.57 2.3-3.57 4.51zM624.53 191.22h2.11v17h-2.11v-17zM630.2 191.22h2.11v17h-2.11v-17zM642.3 208.26l-.17-1.46h-.08a4.33 4.33 0 0 1-3.55 1.73 3.31 3.31 0 0 1-3.55-3.34c0-2.81 2.5-4.34 7-4.32v-.24a2.4 2.4 0 0 0-2.64-2.69 5.79 5.79 0 0 0-3 .86l-.48-1.39a7.21 7.21 0 0 1 3.82-1c3.55 0 4.42 2.42 4.42 4.75v4.34a16.3 16.3 0 0 0 .19 2.78h-1.92zm-.31-5.93c-2.3 0-4.92.36-4.92 2.62a1.87 1.87 0 0 0 2 2 2.89 2.89 0 0 0 2.81-1.94 2.2 2.2 0 0 0 .12-.67v-2zM647.34 208.26c0-.79.1-2 .1-3v-14h2.09v7.3a4.33 4.33 0 0 1 4-2.14c2.88 0 4.92 2.4 4.9 5.93 0 4.15-2.62 6.22-5.21 6.22a4.14 4.14 0 0 1-3.89-2.18h-.07l-.1 1.92h-1.82zm2.18-4.66a3.9 3.9 0 0 0 .1.77 3.26 3.26 0 0 0 3.17 2.47c2.21 0 3.53-1.8 3.53-4.46 0-2.33-1.2-4.32-3.46-4.32a3.37 3.37 0 0 0-3.22 2.59 4.18 4.18 0 0 0-.12.86v2.09zM671.6 202.36c0 4.3-3 6.17-5.79 6.17-3.14 0-5.57-2.3-5.57-6 0-3.89 2.54-6.17 5.76-6.17s5.6 2.45 5.6 6zm-9.22.12c0 2.54 1.46 4.46 3.53 4.46s3.53-1.9 3.53-4.51c0-2-1-4.46-3.48-4.46s-3.58 2.3-3.58 4.51zM679.52 200.99v1.56h-5.93v-1.56h5.93zM681.77 205.72a7.4 7.4 0 0 0 3.74 1.06c2.14 0 3.38-1.13 3.38-2.76s-.86-2.38-3-3.22c-2.64-.94-4.27-2.3-4.27-4.58 0-2.52 2.09-4.39 5.23-4.39a7.35 7.35 0 0 1 3.58.79l-.58 1.7a6.44 6.44 0 0 0-3.07-.77c-2.21 0-3 1.32-3 2.42 0 1.51 1 2.26 3.22 3.12 2.74 1.06 4.13 2.38 4.13 4.75s-1.85 4.66-5.66 4.66a8.35 8.35 0 0 1-4.13-1zM702.25 207.83a7.77 7.77 0 0 1-3.34.67c-3.5 0-5.78-2.38-5.78-5.93a5.9 5.9 0 0 1 6.24-6.17 7.06 7.06 0 0 1 2.93.6l-.48 1.63a4.9 4.9 0 0 0-2.45-.55c-2.66 0-4.1 2-4.1 4.39 0 2.69 1.73 4.34 4 4.34a6 6 0 0 0 2.59-.58zM704.72 191.22h2.11v7.25a3.92 3.92 0 0 1 1.51-1.49 4.34 4.34 0 0 1 2.16-.6c1.56 0 4.06 1 4.06 5v6.91h-2.11v-6.67c0-1.87-.7-3.46-2.69-3.46a3 3 0 0 0-2.83 2.11 2.56 2.56 0 0 0-.14 1v7h-2.11v-17zM728.55 202.36c0 4.3-3 6.17-5.79 6.17-3.14 0-5.57-2.3-5.57-6 0-3.89 2.54-6.17 5.76-6.17s5.6 2.45 5.6 6zm-9.22.12c0 2.54 1.46 4.46 3.53 4.46s3.53-1.9 3.53-4.51c0-2-1-4.46-3.48-4.46s-3.58 2.3-3.58 4.51zM741.73 202.36c0 4.3-3 6.17-5.79 6.17-3.14 0-5.57-2.3-5.57-6 0-3.89 2.54-6.17 5.76-6.17s5.6 2.45 5.6 6zm-9.22.12c0 2.54 1.46 4.46 3.53 4.46s3.53-1.9 3.53-4.51c0-2-1-4.46-3.48-4.46s-3.58 2.3-3.58 4.51zM744.39 191.22h2.11v17h-2.11v-17z"/></g><g id="w02"><circle class="cls-2" cx="739.07" cy="279.56" r="14.53"/><path d="M769.5 253.22c-.12-2.26-.26-5-.24-7h-.07c-.55 1.9-1.22 3.91-2 6.14l-2.86 7.85h-1.58l-2.62-7.7c-.77-2.28-1.42-4.37-1.87-6.29 0 2-.17 4.73-.31 7.15l-.43 6.94h-2l1.04-16.18h2.66l2.76 7.83c.67 2 1.22 3.77 1.63 5.45h.07c.41-1.63 1-3.41 1.7-5.45l2.88-7.83h2.66l1 16.18h-2zM785.74 254.42c0 4.3-3 6.17-5.79 6.17-3.14 0-5.57-2.3-5.57-6 0-3.89 2.54-6.17 5.76-6.17s5.6 2.45 5.6 6zm-9.22.12c0 2.54 1.46 4.46 3.53 4.46s3.53-1.9 3.53-4.51c0-2-1-4.46-3.48-4.46s-3.57 2.3-3.57 4.51zM798.44 243.28v14c0 1 0 2.21.1 3h-1.9l-.1-2a4.3 4.3 0 0 1-4 2.28c-2.81 0-5-2.38-5-5.9 0-3.86 2.38-6.24 5.21-6.24a3.89 3.89 0 0 1 3.5 1.78v-6.94h2.11zm-2.11 10.15a3.72 3.72 0 0 0-.1-.89 3.11 3.11 0 0 0-3-2.45c-2.18 0-3.48 1.92-3.48 4.49 0 2.35 1.15 4.3 3.43 4.3a3.17 3.17 0 0 0 3.1-2.52 3.66 3.66 0 0 0 .1-.91v-2zM804.29 245.44a1.31 1.31 0 0 1-2.62 0 1.29 1.29 0 0 1 1.32-1.32 1.25 1.25 0 0 1 1.3 1.32zm-2.35 14.88v-11.61h2.11v11.62h-2.11zM810.1 245.37v3.34h3v1.61h-3v6.26c0 1.44.41 2.26 1.58 2.26a4.68 4.68 0 0 0 1.22-.14l.1 1.58a5.17 5.17 0 0 1-1.87.29 2.93 2.93 0 0 1-2.28-.89 4.31 4.31 0 0 1-.82-3v-6.34h-1.8v-1.61h1.82v-2.78z"/></g><g id="w01"><circle class="cls-2" cx="901.57" cy="331.6" r="14.53"/><path d="M921.27 294.73a32.17 32.17 0 0 1 4.87-.34c2.4 0 4.08.36 5.23 1.27a4.1 4.1 0 0 1 1.49 3.38 4.29 4.29 0 0 1-2.86 4v.09c1.13.46 1.75 1.54 2.16 3 .5 1.82 1 3.94 1.32 4.56h-3.75a20.32 20.32 0 0 1-1.13-3.77c-.43-2-1.13-2.57-2.62-2.59h-1.1v6.36h-3.62v-16zm3.62 7h1.44c1.82 0 2.9-.91 2.9-2.33s-1-2.23-2.69-2.26a9.17 9.17 0 0 0-1.66.12v4.46zM950.21 302.44c0 5.3-3.22 8.52-7.95 8.52s-7.61-3.62-7.61-8.23c0-4.85 3.1-8.47 7.87-8.47 4.98-.01 7.69 3.71 7.69 8.18zm-11.69.22c0 3.17 1.49 5.4 3.94 5.4s3.89-2.35 3.89-5.5c0-2.9-1.39-5.4-3.91-5.4s-3.92 2.35-3.92 5.49zM956.26 310.69l-5.21-16.17h4l2 6.84c.55 1.92 1.06 3.77 1.44 5.78h.07c.41-1.94.91-3.86 1.46-5.71l2.06-6.91h3.89l-5.45 16.18h-4.27zM977.33 303.85h-6v3.84h6.72v3h-10.32v-16.17h10v3h-6.31v3.36h6v3zM980.52 294.73a32.17 32.17 0 0 1 4.87-.34c2.4 0 4.08.36 5.23 1.27a4.1 4.1 0 0 1 1.49 3.38 4.29 4.29 0 0 1-2.86 4v.09c1.13.46 1.75 1.54 2.16 3 .5 1.82 1 3.94 1.32 4.56h-3.75a20.32 20.32 0 0 1-1.13-3.77c-.43-2-1.13-2.57-2.62-2.59h-1.1v6.36h-3.62v-16zm3.62 7h1.44c1.82 0 2.9-.91 2.9-2.33s-1-2.23-2.69-2.26a9.17 9.17 0 0 0-1.66.12v4.46z"/></g><g id="h02"><circle class="cls-2" cx="235" cy="473.88" r="14.53"/><path d="M91.86 477.67a9.32 9.32 0 0 0 4.06 1c1.68 0 2.57-.7 2.57-1.75s-.77-1.58-2.71-2.28c-2.69-.94-4.44-2.42-4.44-4.78 0-2.76 2.3-4.87 6.12-4.87a9.9 9.9 0 0 1 4.13.82l-.82 3a7.68 7.68 0 0 0-3.38-.77c-1.58 0-2.35.72-2.35 1.56 0 1 .91 1.49 3 2.28 2.86 1.06 4.2 2.54 4.2 4.82 0 2.71-2.09 5-6.53 5a10.59 10.59 0 0 1-4.58-1zM107.31 481.44l-3.84-16.18h3.91l1.22 6.67c.36 1.92.7 4 1 5.64.26-1.75.65-3.7 1.06-5.69l1.37-6.62h3.89l1.3 6.82c.36 1.9.62 3.62.86 5.42.24-1.8.6-3.7.94-5.62l1.32-6.62h3.72l-4.18 16.18h-4l-1.37-7c-.31-1.63-.58-3.14-.77-5-.29 1.82-.55 3.36-.94 5l-1.54 7h-4zM129.68 465.26v16.18h-3.63v-16.18h3.67zM146.53 475.24c-.07-1.94-.14-4.3-.14-6.65h-.07c-.5 2.06-1.18 4.37-1.8 6.26l-2 6.31h-2.86l-1.73-6.26c-.53-1.9-1.08-4.2-1.46-6.31-.1 2.18-.17 4.68-.29 6.7l-.29 6.14h-3.38l1-16.18h4.87l1.58 5.4c.5 1.87 1 3.89 1.37 5.78h.07c.46-1.87 1-4 1.54-5.81l1.73-5.38h4.78l.89 16.18h-3.58zM166.83 475.24c-.07-1.94-.14-4.3-.14-6.65h-.07c-.5 2.06-1.18 4.37-1.8 6.26l-2 6.31h-2.86l-1.73-6.26c-.53-1.9-1.08-4.2-1.46-6.31-.1 2.18-.17 4.68-.29 6.7l-.29 6.14h-3.38l1-16.18h4.87l1.58 5.4c.5 1.87 1 3.89 1.37 5.78h.07c.46-1.87 1-4 1.54-5.81l1.73-5.38h4.78l.89 16.18h-3.59zM177.13 465.26v16.18h-3.67v-16.18h3.67zM180.3 481.44v-16.18h4.27l3.36 5.93a46.94 46.94 0 0 1 2.64 5.54h.07a60 60 0 0 1-.31-6.75v-4.73h3.36v16.18h-3.84l-3.46-6.24a60.11 60.11 0 0 1-2.81-5.71h-.07c.1 2.14.14 4.42.14 7.06v4.87h-3.36zM210.37 480.69a18.08 18.08 0 0 1-5.4.91c-3 0-5.09-.74-6.58-2.18a7.83 7.83 0 0 1-2.28-5.88c0-5.38 3.94-8.45 9.24-8.45a11.13 11.13 0 0 1 4.49.79l-.79 2.93a9 9 0 0 0-3.77-.7c-3 0-5.35 1.73-5.35 5.23 0 3.34 2.09 5.3 5.09 5.3a4.88 4.88 0 0 0 1.8-.24v-3.37h-2.5v-2.9h6v8.52z"/></g><g id="p01"><circle class="cls-2" cx="773.28" cy="439.67" r="14.53"/><path d="M811.86 427.85a10.43 10.43 0 0 1-4.15.7c-5.59 0-8.47-3.48-8.47-8.09 0-5.52 3.94-8.59 8.83-8.59a9.55 9.55 0 0 1 4 .72l-.74 2.9a7.91 7.91 0 0 0-3.07-.6c-2.9 0-5.16 1.75-5.16 5.35 0 3.24 1.92 5.28 5.18 5.28a9.14 9.14 0 0 0 3-.53zM828.35 420.05c0 5.3-3.22 8.52-7.95 8.52s-7.61-3.62-7.61-8.23c0-4.85 3.1-8.47 7.87-8.47 4.97-.01 7.69 3.71 7.69 8.18zm-11.69.22c0 3.17 1.49 5.4 3.94 5.4s3.89-2.35 3.89-5.5c0-2.9-1.39-5.4-3.91-5.4s-3.92 2.36-3.92 5.49zM830.75 412.13h3.67v13.1h6.43v3.07h-10.1v-16.17zM843.05 412.13h3.67v13.1h6.43v3.07h-10.1v-16.17zM859.18 424.13l-1.15 4.15h-3.79l4.94-16.18h4.8l5 16.18h-3.93l-1.25-4.15h-4.63zm4.1-2.74l-1-3.43c-.29-1-.58-2.16-.82-3.12-.24 1-.48 2.18-.74 3.12l-1 3.43h3.58zM871.16 412.34a29.22 29.22 0 0 1 4.73-.34 8.93 8.93 0 0 1 4.78.91 3.52 3.52 0 0 1 1.94 3.17 3.66 3.66 0 0 1-2.66 3.46 4 4 0 0 1 3.22 4 4.31 4.31 0 0 1-1.68 3.43c-1.18.94-3.14 1.46-6.36 1.46a28.28 28.28 0 0 1-4-.24v-15.85zm3.62 6.19h1.2c1.92 0 3-.79 3-2s-.94-1.87-2.59-1.87a10 10 0 0 0-1.56.1v3.77zm0 7.18a11.58 11.58 0 0 0 1.42 0c1.66 0 3.12-.62 3.12-2.33s-1.46-2.25-3.27-2.25h-1.25v4.56zM900.47 420.05c0 5.3-3.22 8.52-7.94 8.52s-7.61-3.62-7.61-8.23c0-4.85 3.1-8.47 7.87-8.47 4.96-.01 7.68 3.71 7.68 8.18zm-11.69.22c0 3.17 1.49 5.4 3.94 5.4s3.89-2.35 3.89-5.5c0-2.9-1.39-5.4-3.91-5.4s-3.92 2.36-3.92 5.49zM916.38 427.56a18.11 18.11 0 0 1-5.4.91c-3 0-5.09-.74-6.58-2.18a7.83 7.83 0 0 1-2.28-5.88c0-5.38 3.94-8.45 9.24-8.45a11.15 11.15 0 0 1 4.49.79l-.77 2.93a9 9 0 0 0-3.77-.7c-3 0-5.35 1.73-5.35 5.23 0 3.34 2.09 5.3 5.09 5.3a4.91 4.91 0 0 0 1.8-.24v-3.38h-2.5v-2.86h6v8.52zM922.88 412.13v9.31c0 2.78 1.06 4.2 2.93 4.2s3-1.34 3-4.2v-9.31h3.65v9.07c0 5-2.52 7.37-6.75 7.37s-6.48-2.26-6.48-7.42v-9h3.67zM939.27 412.13v16.18h-3.67v-16.18h3.67z"/></g><g id="p02"><circle class="cls-2" cx="596.15" cy="382.95" r="14.53"/><path d="M629.39 355.88c0 .84-.1 1.78-.1 3.19v6.74c0 2.66-.53 4.3-1.66 5.3a6.16 6.16 0 0 1-4.22 1.39 7.5 7.5 0 0 1-3.87-1l.53-1.61a6.55 6.55 0 0 0 3.41.91c2.16 0 3.74-1.13 3.74-4.06v-1.3a4.15 4.15 0 0 1-3.7 1.94c-2.88 0-4.94-2.45-4.94-5.66 0-3.94 2.57-6.17 5.23-6.17a3.87 3.87 0 0 1 3.63 2l.1-1.75h1.85zm-2.18 4.58a3.09 3.09 0 0 0-3.07-3.19c-2 0-3.46 1.7-3.46 4.39 0 2.28 1.15 4.18 3.43 4.18a3.09 3.09 0 0 0 2.93-2.16 3.67 3.67 0 0 0 .17-1.13v-2.09zM639.23 367.5l-.18-1.46h-.07a4.33 4.33 0 0 1-3.55 1.73 3.31 3.31 0 0 1-3.55-3.34c0-2.81 2.5-4.34 7-4.32v-.24a2.4 2.4 0 0 0-2.64-2.69 5.79 5.79 0 0 0-3 .86l-.48-1.39a7.21 7.21 0 0 1 3.82-1c3.55 0 4.42 2.42 4.42 4.75v4.34a16.3 16.3 0 0 0 .19 2.78h-1.92zm-.31-5.93c-2.3 0-4.92.36-4.92 2.62a1.87 1.87 0 0 0 2 2 2.89 2.89 0 0 0 2.81-1.94 2.2 2.2 0 0 0 .12-.67v-2zM646.46 361.21c.29-.41.7-.91 1-1.32l3.41-4h2.54l-4.36 4.77 5.11 6.84h-2.61l-4-5.57-1.08 1.2v4.37h-2.09v-17h2.09v10.75zM665.44 364.33c0 1.2 0 2.26.1 3.17h-1.87l-.12-1.9a4.37 4.37 0 0 1-3.84 2.16c-1.82 0-4-1-4-5.09v-6.79h2.11v6.43c0 2.21.67 3.7 2.59 3.7a3.05 3.05 0 0 0 2.78-1.92 3.09 3.09 0 0 0 .19-1.08v-7.13h2.11v8.45z"/></g><g id="e03"><circle class="cls-2" cx="398.08" cy="438.12" r="14.53"/><path d="M431.94 430.85v9.58c0 3.62 1.61 5.16 3.77 5.16 2.4 0 3.94-1.58 3.94-5.16v-9.58h2.11v9.43c0 5-2.62 7-6.12 7-3.31 0-5.81-1.9-5.81-6.91v-9.53h2.11zM445.31 438.55c0-1.2 0-2.18-.1-3.14h1.84l.12 1.92a4.27 4.27 0 0 1 3.88-2.2c1.61 0 4.1 1 4.1 4.94v6.94h-2.1v-6.7c0-1.87-.7-3.43-2.69-3.43a3 3 0 0 0-2.83 2.16 3 3 0 0 0-.14 1v7h-2.11v-8.47zM460.98 432.13a1.31 1.31 0 0 1-2.62 0 1.29 1.29 0 0 1 1.32-1.32 1.25 1.25 0 0 1 1.3 1.32zm-2.35 14.88v-11.6h2.11v11.62h-2.11zM465.05 435.41l2.28 6.53a30.05 30.05 0 0 1 .94 3h.07c.26-1 .6-1.92 1-3l2.26-6.53h2.21l-4.56 11.62h-2l-4.42-11.62h2.22zM476.73 441.6a3.72 3.72 0 0 0 4 4 7.65 7.65 0 0 0 3.22-.6l.36 1.51a9.41 9.41 0 0 1-3.86.72c-3.58 0-5.71-2.35-5.71-5.86s2.06-6.26 5.45-6.26c3.79 0 4.8 3.34 4.8 5.47a7.87 7.87 0 0 1-.07 1h-8.16zm6.19-1.51c0-1.34-.55-3.43-2.93-3.43-2.14 0-3.07 2-3.24 3.43h6.17zM487.58 439.03c0-1.37 0-2.54-.1-3.62h1.85l.07 2.28h.1a3.49 3.49 0 0 1 3.22-2.54 2.28 2.28 0 0 1 .6.07v2a3.18 3.18 0 0 0-.72-.07 3 3 0 0 0-2.83 2.71 6 6 0 0 0-.1 1v6.19h-2.09v-8zM495.14 444.86a5.53 5.53 0 0 0 2.78.84c1.54 0 2.26-.77 2.26-1.73s-.6-1.56-2.16-2.14c-2.09-.74-3.07-1.9-3.07-3.29 0-1.87 1.51-3.41 4-3.41a5.8 5.8 0 0 1 2.86.72l-.53 1.54a4.52 4.52 0 0 0-2.38-.67 1.69 1.69 0 0 0-1.94 1.58c0 1 .7 1.39 2.21 2 2 .77 3 1.78 3 3.5 0 2-1.58 3.48-4.34 3.48a6.62 6.62 0 0 1-3.26-.79zM507.28 432.13a1.31 1.31 0 0 1-2.62 0 1.29 1.29 0 0 1 1.32-1.32 1.25 1.25 0 0 1 1.3 1.32zm-2.35 14.88v-11.6h2.12v11.62h-2.11zM513.05 432.07v3.34h3v1.61h-3v6.26c0 1.44.41 2.26 1.58 2.26a4.68 4.68 0 0 0 1.22-.14l.1 1.58a5.17 5.17 0 0 1-1.87.29 2.93 2.93 0 0 1-2.28-.89 4.31 4.31 0 0 1-.82-3v-6.34h-1.8v-1.61h1.87v-2.78zM519.47 435.41l2.54 6.86c.26.77.55 1.68.74 2.38.22-.7.46-1.58.74-2.42l2.3-6.82h2.26l-3.17 8.28c-1.51 4-2.54 6-4 7.27a5.73 5.73 0 0 1-2.59 1.37l-.53-1.78a5.59 5.59 0 0 0 1.85-1 6.42 6.42 0 0 0 1.78-2.35 1.52 1.52 0 0 0 .17-.5 1.82 1.82 0 0 0-.14-.55l-4.3-10.71h2.3zM545.61 441.13c0 4.3-3 6.17-5.78 6.17-3.14 0-5.57-2.3-5.57-6 0-3.89 2.54-6.17 5.76-6.17s5.59 2.44 5.59 6zm-9.22.12c0 2.54 1.46 4.46 3.53 4.46s3.53-1.9 3.53-4.51c0-2-1-4.46-3.48-4.46s-3.58 2.29-3.58 4.5zM548.49 447.02v-10h-1.64v-1.61h1.63v-.55a5.47 5.47 0 0 1 1.34-4.06 4 4 0 0 1 2.83-1.08 4.9 4.9 0 0 1 1.8.34l-.29 1.63a3.16 3.16 0 0 0-1.34-.26c-1.8 0-2.26 1.58-2.26 3.36v.62h2.81v1.61h-2.81v10h-2.09zM562.53 432.62h-4.92v-1.78h12v1.78h-4.94v14.4h-2.11v-14.4zM580.12 441.13c0 4.3-3 6.17-5.78 6.17-3.14 0-5.57-2.3-5.57-6 0-3.89 2.54-6.17 5.76-6.17s5.59 2.44 5.59 6zm-9.22.12c0 2.54 1.46 4.46 3.53 4.46s3.53-1.9 3.53-4.51c0-2-1-4.46-3.48-4.46s-3.58 2.29-3.58 4.5zM584.87 440.73c.29-.41.7-.91 1-1.32l3.41-4h2.54l-4.49 4.78 5.11 6.84h-2.57l-4-5.57-1.08 1.2v4.37h-2.09v-17h2.09v10.7zM595.12 435.41l2.54 6.86c.26.77.55 1.68.74 2.38.22-.7.46-1.58.74-2.42l2.3-6.82h2.23l-3.17 8.28c-1.51 4-2.54 6-4 7.27a5.73 5.73 0 0 1-2.59 1.37l-.53-1.78a5.59 5.59 0 0 0 1.85-1 6.42 6.42 0 0 0 1.82-2.42 1.52 1.52 0 0 0 .17-.5 1.82 1.82 0 0 0-.14-.55l-4.3-10.71h2.3zM615.93 441.13c0 4.3-3 6.17-5.78 6.17-3.14 0-5.57-2.3-5.57-6 0-3.89 2.54-6.17 5.76-6.17s5.59 2.44 5.59 6zm-9.22.12c0 2.54 1.46 4.46 3.53 4.46s3.53-1.9 3.53-4.51c0-2-1-4.46-3.48-4.46s-3.58 2.29-3.58 4.5z"/></g><g id="e02"><circle class="cls-2" cx="398.08" cy="551.89" r="14.53"/><path d="M429.42 549.96l-1.68 5.09h-2.16l5.5-16.18h2.52l5.52 16.18h-2.23l-1.73-5.09h-5.74zm5.3-1.63l-1.58-4.66c-.36-1.06-.6-2-.84-3-.24 1-.5 1.94-.82 2.93l-1.58 4.68h4.87zM441.35 546.58c0-1.2 0-2.18-.1-3.14h1.8l.1 1.87h.07a4 4 0 0 1 3.65-2.14 3.43 3.43 0 0 1 3.29 2.33 4.79 4.79 0 0 1 1.3-1.51 4 4 0 0 1 2.57-.82c1.54 0 3.82 1 3.82 5v6.84h-2.06v-6.58c0-2.23-.82-3.58-2.52-3.58a2.74 2.74 0 0 0-2.5 1.92 3.49 3.49 0 0 0-.17 1.06v7.18h-2.06v-7c0-1.85-.82-3.19-2.42-3.19a3.15 3.15 0 0 0-2.78 3.14v7h-1.99v-8.47zM462.54 549.62a3.72 3.72 0 0 0 4 4 7.64 7.64 0 0 0 3.22-.6l.36 1.51a9.41 9.41 0 0 1-3.86.72c-3.58 0-5.71-2.35-5.71-5.86s2.06-6.26 5.45-6.26c3.79 0 4.8 3.34 4.8 5.47a8 8 0 0 1-.07 1h-8.16zm6.19-1.51c0-1.34-.55-3.43-2.93-3.43-2.14 0-3.07 2-3.24 3.43h6.17zM473.39 547.05c0-1.37 0-2.54-.1-3.62h1.85l.07 2.28h.1a3.48 3.48 0 0 1 3.22-2.54 2.29 2.29 0 0 1 .6.07v2a3.18 3.18 0 0 0-.72-.07 3 3 0 0 0-2.83 2.71 5.91 5.91 0 0 0-.1 1v6.19h-2.09v-8zM483.68 540.13a1.31 1.31 0 0 1-2.62 0 1.29 1.29 0 0 1 1.32-1.32 1.25 1.25 0 0 1 1.3 1.32zm-2.35 14.88v-11.58h2.11v11.62h-2.11zM495.23 554.62a7.77 7.77 0 0 1-3.34.67c-3.5 0-5.78-2.38-5.78-5.93a5.9 5.9 0 0 1 6.24-6.17 7.06 7.06 0 0 1 2.93.6l-.48 1.63a4.9 4.9 0 0 0-2.45-.55c-2.66 0-4.1 2-4.1 4.39 0 2.69 1.73 4.34 4 4.34a6 6 0 0 0 2.59-.58zM504.13 555.05l-.17-1.46h-.07a4.33 4.33 0 0 1-3.55 1.73 3.31 3.31 0 0 1-3.55-3.34c0-2.81 2.5-4.34 7-4.32v-.24a2.39 2.39 0 0 0-2.64-2.69 5.78 5.78 0 0 0-3 .86l-.48-1.39a7.21 7.21 0 0 1 3.82-1c3.55 0 4.42 2.42 4.42 4.75v4.34a16.41 16.41 0 0 0 .19 2.78h-1.92zm-.31-5.92c-2.3 0-4.92.36-4.92 2.62a1.87 1.87 0 0 0 2 2 2.89 2.89 0 0 0 2.81-1.94 2.2 2.2 0 0 0 .12-.67v-2zM509.27 546.58c0-1.2 0-2.18-.1-3.14h1.88l.12 1.92a4.27 4.27 0 0 1 3.88-2.23c1.61 0 4.1 1 4.1 4.94v6.94h-2.1v-6.7c0-1.87-.7-3.43-2.69-3.43a3 3 0 0 0-2.83 2.16 3 3 0 0 0-.14 1v7h-2.11v-8.47zM527.46 552.5a7.4 7.4 0 0 0 3.74 1.06c2.14 0 3.38-1.13 3.38-2.76s-.86-2.38-3-3.22c-2.64-.94-4.27-2.3-4.27-4.58 0-2.52 2.09-4.39 5.23-4.39a7.35 7.35 0 0 1 3.58.79l-.58 1.7a6.44 6.44 0 0 0-3.07-.77c-2.21 0-3 1.32-3 2.42 0 1.51 1 2.26 3.22 3.12 2.74 1.06 4.13 2.38 4.13 4.75s-1.85 4.66-5.67 4.66a8.36 8.36 0 0 1-4.13-1zM547.93 554.62a7.78 7.78 0 0 1-3.34.67c-3.5 0-5.79-2.38-5.79-5.93a5.9 5.9 0 0 1 6.24-6.17 7.06 7.06 0 0 1 2.93.6l-.48 1.63a4.9 4.9 0 0 0-2.45-.55c-2.67 0-4.1 2-4.1 4.39 0 2.69 1.73 4.34 4 4.34a6 6 0 0 0 2.59-.58zM550.4 538.01h2.11v7.25a3.92 3.92 0 0 1 1.51-1.49 4.34 4.34 0 0 1 2.16-.6c1.56 0 4.06 1 4.06 5v6.91h-2.11v-6.67c0-1.87-.7-3.46-2.69-3.46a3 3 0 0 0-2.83 2.11 2.55 2.55 0 0 0-.14 1v7h-2.11v-17zM574.23 549.13c0 4.3-3 6.17-5.78 6.17-3.14 0-5.57-2.3-5.57-6 0-3.89 2.54-6.17 5.76-6.17s5.59 2.46 5.59 6zm-9.22.12c0 2.54 1.46 4.46 3.53 4.46s3.53-1.9 3.53-4.51c0-2-1-4.46-3.48-4.46s-3.54 2.31-3.54 4.52zM587.41 549.13c0 4.3-3 6.17-5.78 6.17-3.14 0-5.57-2.3-5.57-6 0-3.89 2.54-6.17 5.76-6.17s5.59 2.46 5.59 6zm-9.22.12c0 2.54 1.46 4.46 3.53 4.46s3.53-1.9 3.53-4.51c0-2-1-4.46-3.48-4.46s-3.58 2.31-3.58 4.52zM590.05 538.01h2.11v17h-2.11v-17zM611.34 549.13c0 4.3-3 6.17-5.78 6.17-3.14 0-5.57-2.3-5.57-6 0-3.89 2.54-6.17 5.76-6.17s5.59 2.46 5.59 6zm-9.22.12c0 2.54 1.46 4.46 3.53 4.46s3.53-1.9 3.53-4.51c0-2-1-4.46-3.48-4.46s-3.58 2.31-3.58 4.52zM614.22 555.05v-10h-1.63v-1.62h1.63v-.55a5.47 5.47 0 0 1 1.34-4.06 4 4 0 0 1 2.83-1.08 4.9 4.9 0 0 1 1.8.34l-.29 1.63a3.16 3.16 0 0 0-1.34-.26c-1.8 0-2.26 1.58-2.26 3.36v.62h2.81v1.61h-2.81v10h-2.09zM626.17 539.06a24.19 24.19 0 0 1 4-.31 6.65 6.65 0 0 1 4.54 1.34 4.35 4.35 0 0 1 1.42 3.38 4.76 4.76 0 0 1-1.25 3.46 6.7 6.7 0 0 1-4.95 1.78 7.18 7.18 0 0 1-1.68-.14v6.48h-2.09v-16zm2.09 7.8a7 7 0 0 0 1.73.17c2.52 0 4.06-1.22 4.06-3.46s-1.51-3.17-3.82-3.17a8.78 8.78 0 0 0-2 .17v6.29zM644.67 555.05l-.17-1.46h-.07a4.33 4.33 0 0 1-3.55 1.73 3.31 3.31 0 0 1-3.55-3.34c0-2.81 2.5-4.34 7-4.32v-.24a2.39 2.39 0 0 0-2.64-2.69 5.78 5.78 0 0 0-3 .86l-.48-1.39a7.21 7.21 0 0 1 3.82-1c3.55 0 4.42 2.42 4.42 4.75v4.34a16.41 16.41 0 0 0 .19 2.78h-1.92zm-.31-5.92c-2.3 0-4.92.36-4.92 2.62a1.87 1.87 0 0 0 2 2 2.89 2.89 0 0 0 2.81-1.94 2.2 2.2 0 0 0 .12-.67v-2zM649.81 547.05c0-1.37 0-2.54-.1-3.62h1.85l.07 2.28h.1a3.48 3.48 0 0 1 3.22-2.58 2.3 2.3 0 0 1 .6.07v2a3.2 3.2 0 0 0-.72-.07 3 3 0 0 0-2.83 2.71 6 6 0 0 0-.1 1v6.19h-2.09v-8zM660.11 540.13a1.31 1.31 0 0 1-2.62 0 1.29 1.29 0 0 1 1.32-1.32 1.25 1.25 0 0 1 1.3 1.32zm-2.35 14.88v-11.58h2.11v11.62h-2.12zM663.05 552.89a5.53 5.53 0 0 0 2.78.84c1.54 0 2.26-.77 2.26-1.73s-.6-1.56-2.16-2.14c-2.09-.74-3.07-1.9-3.07-3.29 0-1.87 1.51-3.41 4-3.41a5.8 5.8 0 0 1 2.86.72l-.53 1.54a4.52 4.52 0 0 0-2.38-.67 1.7 1.7 0 0 0-1.94 1.58c0 1 .7 1.39 2.21 2 2 .77 3 1.78 3 3.5 0 2-1.58 3.48-4.34 3.48a6.62 6.62 0 0 1-3.26-.79z"/></g><g id="e01"><circle class="cls-2" cx="398.08" cy="665.66" r="14.53"/><path d="M144.97 668.66l-1.15 4.15h-3.77l4.94-16.18h4.8l5 16.18h-3.94l-1.25-4.15h-4.63zm4.1-2.74l-1-3.43c-.29-1-.58-2.16-.82-3.12-.24 1-.48 2.18-.74 3.12l-1 3.43h3.54zM156.05 670.85l7.7-11.09v-.1h-7v-3h11.74v2.11l-7.54 10.95v.1h7.66v3h-12.56v-2zM174.89 668.66l-1.15 4.15h-3.79l4.94-16.18h4.8l5 16.18h-3.94l-1.25-4.15h-4.63zm4.1-2.74l-1-3.43c-.29-1-.58-2.16-.82-3.12-.24 1-.48 2.18-.74 3.12l-1 3.43h3.58zM186.87 656.85a29.11 29.11 0 0 1 4.73-.34 8.93 8.93 0 0 1 4.78.91 3.52 3.52 0 0 1 1.94 3.17 3.66 3.66 0 0 1-2.66 3.46 4 4 0 0 1 3.22 4 4.31 4.31 0 0 1-1.68 3.43c-1.18.94-3.14 1.46-6.36 1.46a28.47 28.47 0 0 1-4-.24v-15.85zm3.62 6.19h1.2c1.92 0 3-.79 3-2s-.94-1.87-2.59-1.87a10 10 0 0 0-1.56.1v3.77zm0 7.18a11.58 11.58 0 0 0 1.42 0c1.66 0 3.12-.62 3.12-2.33s-1.46-2.28-3.29-2.28h-1.25v4.56zM205.05 656.64v9.31c0 2.78 1.06 4.2 2.93 4.2s3-1.34 3-4.2v-9.31h3.65v9.07c0 5-2.52 7.37-6.74 7.37s-6.48-2.26-6.48-7.42v-9h3.64zM226.25 656.64v6.22h6v-6.22h3.65v16.18h-3.65v-6.77h-6v6.77h-3.67v-16.18h3.67zM242.79 656.64v16.18h-3.67v-16.18h3.67zM259.47 672.07a18.08 18.08 0 0 1-5.4.91c-3 0-5.09-.74-6.58-2.18a7.83 7.83 0 0 1-2.28-5.88c0-5.38 3.94-8.45 9.24-8.45a11.13 11.13 0 0 1 4.49.79l-.77 2.93a9 9 0 0 0-3.77-.7c-3 0-5.35 1.73-5.35 5.23 0 3.34 2.09 5.3 5.09 5.3a4.88 4.88 0 0 0 1.8-.24v-3.38h-2.5v-2.86h6v8.52zM266 656.64v6.22h6v-6.22h3.65v16.18h-3.6v-6.77h-6v6.77h-3.67v-16.18h3.67zM283.83 669.05a9.32 9.32 0 0 0 4.06 1c1.68 0 2.57-.7 2.57-1.75s-.77-1.58-2.71-2.28c-2.69-.94-4.44-2.42-4.44-4.78 0-2.76 2.3-4.87 6.12-4.87a9.9 9.9 0 0 1 4.13.82l-.82 3a7.68 7.68 0 0 0-3.38-.77c-1.58 0-2.35.72-2.35 1.56 0 1 .91 1.49 3 2.28 2.86 1.06 4.2 2.54 4.2 4.82 0 2.71-2.09 5-6.53 5a10.59 10.59 0 0 1-4.58-1zM308.55 672.36a10.43 10.43 0 0 1-4.15.7c-5.59 0-8.47-3.48-8.47-8.09 0-5.52 3.94-8.59 8.83-8.59a9.52 9.52 0 0 1 4 .72l-.74 2.9a7.89 7.89 0 0 0-3.07-.6c-2.9 0-5.16 1.75-5.16 5.35 0 3.24 1.92 5.28 5.18 5.28a9.14 9.14 0 0 0 3-.53zM314.62 656.64v6.22h6v-6.22h3.65v16.18h-3.65v-6.77h-6v6.77h-3.67v-16.18h3.67zM342.29 664.56c0 5.3-3.22 8.52-7.94 8.52s-7.61-3.62-7.61-8.23c0-4.85 3.1-8.47 7.87-8.47 4.97-.01 7.68 3.75 7.68 8.18zm-11.69.22c0 3.17 1.49 5.4 3.94 5.4s3.89-2.35 3.89-5.5c0-2.9-1.39-5.4-3.91-5.4s-3.92 2.35-3.92 5.49zM359.5 664.56c0 5.3-3.22 8.52-7.94 8.52s-7.61-3.62-7.61-8.23c0-4.85 3.1-8.47 7.87-8.47 4.97-.01 7.68 3.75 7.68 8.18zm-11.69.22c0 3.17 1.49 5.4 3.94 5.4s3.89-2.35 3.89-5.5c0-2.9-1.39-5.4-3.91-5.4s-3.92 2.35-3.92 5.49zM361.9 656.64h3.67v13.1h6.48v3.07h-10.1v-16.17z"/></g><g id="l03"><circle class="cls-2" cx="535.64" cy="676.77" r="14.53"/><path d="M557.34 708.59h-6v3.84h6.71v3h-10.34v-16.17h10v3h-6.31v3.36h6v3zM560.53 715.43v-16.17h4.27l3.36 5.93a46.93 46.93 0 0 1 2.64 5.54h.07a60 60 0 0 1-.31-6.74v-4.73h3.36v16.17h-3.87l-3.46-6.24a60 60 0 0 1-2.81-5.71h-.07c.1 2.14.14 4.42.14 7.06v4.87h-3.36zM590.6 714.69a18.11 18.11 0 0 1-5.4.91c-3 0-5.09-.74-6.58-2.18a7.83 7.83 0 0 1-2.28-5.88c0-5.38 3.94-8.45 9.24-8.45a11.15 11.15 0 0 1 4.49.79l-.77 2.93a9 9 0 0 0-3.77-.7c-3 0-5.35 1.73-5.35 5.23 0 3.34 2.09 5.3 5.09 5.3a4.91 4.91 0 0 0 1.8-.24v-3.37h-2.5v-2.9h6v8.52zM593.46 699.26h3.67v13.11h6.43v3.07h-10.1v-16.18zM609.39 699.26v16.17h-3.67v-16.17h3.67zM612.68 711.67a9.34 9.34 0 0 0 4.06 1c1.68 0 2.57-.7 2.57-1.75s-.77-1.58-2.71-2.28c-2.69-.94-4.44-2.42-4.44-4.78 0-2.76 2.3-4.87 6.12-4.87a9.92 9.92 0 0 1 4.13.82l-.82 3a7.68 7.68 0 0 0-3.38-.77c-1.58 0-2.35.72-2.35 1.56 0 1 .91 1.49 3 2.28 2.86 1.06 4.2 2.54 4.2 4.82 0 2.71-2.09 5-6.53 5a10.59 10.59 0 0 1-4.58-1zM629.19 699.26v6.22h6v-6.22h3.65v16.17h-3.65v-6.77h-6v6.77h-3.67v-16.17h3.67z"/></g><g id="l02"><circle class="cls-2" cx="660.31" cy="625.88" r="14.53"/><path d="M682.62 642.76h8.71v1.75h-6.62v5.38h6.12v1.73h-6.12v7.32h-2.09v-16.18zM693.61 650.94c0-1.37 0-2.54-.1-3.62h1.85l.07 2.28h.1a3.49 3.49 0 0 1 3.22-2.54 2.29 2.29 0 0 1 .6.07v2a3.18 3.18 0 0 0-.72-.07 3 3 0 0 0-2.83 2.71 5.88 5.88 0 0 0-.1 1v6.19h-2.09v-8zM702.4 653.51a3.72 3.72 0 0 0 4 4 7.64 7.64 0 0 0 3.22-.6l.36 1.51a9.41 9.41 0 0 1-3.93.71c-3.58 0-5.71-2.35-5.71-5.86s2.06-6.26 5.45-6.26c3.79 0 4.8 3.34 4.8 5.47a8.06 8.06 0 0 1-.07 1h-8.16zm6.19-1.51c0-1.34-.55-3.43-2.93-3.43-2.14 0-3.07 2-3.24 3.43h6.17zM713.24 650.46c0-1.2 0-2.18-.1-3.14h1.91l.12 1.92a4.27 4.27 0 0 1 3.84-2.18c1.61 0 4.1 1 4.1 4.94v6.94h-2.06v-6.7c0-1.87-.7-3.43-2.69-3.43a3 3 0 0 0-2.83 2.16 3 3 0 0 0-.14 1v7h-2.11v-8.47zM734.84 658.5a7.77 7.77 0 0 1-3.34.67c-3.5 0-5.78-2.38-5.78-5.93a5.9 5.9 0 0 1 6.24-6.17 7.08 7.08 0 0 1 2.93.6l-.48 1.63a4.88 4.88 0 0 0-2.45-.55c-2.66 0-4.1 2-4.1 4.39 0 2.69 1.73 4.34 4 4.34a6 6 0 0 0 2.59-.58zM737.32 641.89h2.11v7.24a3.91 3.91 0 0 1 1.51-1.49 4.34 4.34 0 0 1 2.16-.6c1.56 0 4.06 1 4.06 5v6.91h-2.11v-6.67c0-1.87-.7-3.46-2.69-3.46a3 3 0 0 0-2.83 2.11 2.56 2.56 0 0 0-.14 1v7h-2.11v-17z"/></g><g id="l01"><circle class="cls-2" cx="773.28" cy="579.77" r="14.53"/><path d="M802.15 567.28h3.65v10.22c0 4.61-2.21 6.22-5.76 6.22a9.52 9.52 0 0 1-2.66-.38l.41-3a6 6 0 0 0 1.87.29c1.54 0 2.5-.7 2.5-3.22v-10.13zM812.61 579.3l-1.15 4.15h-3.79l4.94-16.18h4.8l5 16.18h-3.94l-1.25-4.15h-4.63zm4.1-2.74l-1-3.43c-.29-1-.58-2.16-.82-3.12-.24 1-.48 2.18-.74 3.12l-1 3.43h3.58zM824.59 567.49a29.9 29.9 0 0 1 4.94-.34 7.76 7.76 0 0 1 4.94 1.3 4.73 4.73 0 0 1 1.73 3.74 5.17 5.17 0 0 1-1.49 3.84 7.5 7.5 0 0 1-5.26 1.7 9.24 9.24 0 0 1-1.25-.07v5.78h-3.62v-16zm3.62 7.34a5.65 5.65 0 0 0 1.22.1c1.94 0 3.14-1 3.14-2.64 0-1.49-1-2.38-2.86-2.38a6.22 6.22 0 0 0-1.51.14v4.78zM840.86 579.3l-1.15 4.15h-3.79l4.94-16.18h4.8l5 16.18h-3.94l-1.25-4.15h-4.63zm4.1-2.74l-1-3.43c-.29-1-.58-2.16-.82-3.12-.24 1-.48 2.18-.74 3.12l-1 3.43h3.58zM852.83 583.45v-16.17h4.27l3.36 5.93a46.87 46.87 0 0 1 2.64 5.54h.07a60 60 0 0 1-.31-6.75v-4.73h3.36v16.18h-3.84l-3.46-6.24a60.11 60.11 0 0 1-2.81-5.71h-.07c.1 2.14.14 4.42.14 7.06v4.87h-3.36zM879.05 576.61h-6v3.84h6.65v3h-10.32v-16.17h10v3h-6.33v3.36h6v3zM882.33 579.68a9.32 9.32 0 0 0 4.06 1c1.68 0 2.57-.7 2.57-1.75s-.77-1.58-2.71-2.28c-2.69-.94-4.44-2.42-4.44-4.78 0-2.76 2.3-4.87 6.12-4.87a9.9 9.9 0 0 1 4.13.82l-.82 3a7.68 7.68 0 0 0-3.38-.77c-1.58 0-2.35.72-2.35 1.56 0 1 .91 1.49 3 2.28 2.86 1.06 4.2 2.54 4.2 4.82 0 2.71-2.09 5-6.53 5a10.59 10.59 0 0 1-4.58-1zM904.79 576.61h-6v3.84h6.65v3h-10.32v-16.17h10v3h-6.31v3.36h6v3z"/></g><g id="p05"><circle class="cls-2" cx="111.53" cy="227.76" r="14.53"/><path d="M125.26 192.91a32.16 32.16 0 0 1 4.87-.34c2.4 0 4.08.36 5.23 1.27a4.11 4.11 0 0 1 1.49 3.38 4.29 4.29 0 0 1-2.86 4v.07c1.13.46 1.75 1.54 2.16 3 .5 1.82 1 3.94 1.32 4.56h-3.74a20.28 20.28 0 0 1-1.13-3.77c-.43-2-1.13-2.57-2.62-2.59h-1.1v6.36h-3.62v-16zm3.62 7h1.44c1.82 0 2.9-.91 2.9-2.33s-1-2.23-2.69-2.26a9.16 9.16 0 0 0-1.66.12v4.46zM149.12 202.03h-6v3.84h6.65v3H139.5v-16.18h10v3h-6.31v3.36h6v3zM152.31 208.87v-16.18h4.27l3.36 5.93a46.9 46.9 0 0 1 2.64 5.54h.07a60 60 0 0 1-.31-6.74v-4.73h3.36v16.18h-3.84l-3.46-6.24a60 60 0 0 1-2.81-5.71h-.07c.1 2.14.14 4.42.14 7.06v4.87h-3.36zM168.87 208.87v-16.18h4.27l3.36 5.93a46.9 46.9 0 0 1 2.64 5.54h.07a60 60 0 0 1-.31-6.74v-4.73h3.36v16.18h-3.84l-3.46-6.24a60 60 0 0 1-2.81-5.71h-.07c.1 2.14.14 4.42.14 7.06v4.87h-3.36zM189.2 204.72l-1.15 4.15h-3.79l4.94-16.18h4.8l5 16.18h-3.95l-1.25-4.15h-4.63zm4.1-2.74l-1-3.43c-.29-1-.58-2.16-.82-3.12-.24 1-.48 2.18-.74 3.12l-1 3.43h3.58z"/></g><g id="w04"><path d="M451.31 143.48v6.22h6v-6.22h3.65v16.18h-3.65v-6.77h-6v6.77h-3.67v-16.18h3.67zM467.94 155.5l-1.15 4.15H463l4.94-16.18h4.8l5 16.18h-3.94l-1.25-4.15h-4.63zm4.1-2.74l-1-3.43c-.29-1-.58-2.16-.82-3.12-.24 1-.48 2.18-.74 3.12l-1 3.43h3.57zM479.91 143.69a32.18 32.18 0 0 1 4.87-.34c2.4 0 4.08.36 5.23 1.27a4.11 4.11 0 0 1 1.49 3.38 4.29 4.29 0 0 1-2.86 4v.07c1.13.46 1.75 1.54 2.16 3 .5 1.82 1 3.94 1.32 4.56h-3.75a20.32 20.32 0 0 1-1.13-3.77c-.43-2-1.13-2.57-2.62-2.59h-1.1v6.36h-3.62v-16zm3.63 7h1.44c1.82 0 2.9-.91 2.9-2.33s-1-2.23-2.69-2.26a9.15 9.15 0 0 0-1.66.12v4.46zM497.82 159.66l-5.18-16.18h4l2 6.84c.55 1.92 1.06 3.77 1.44 5.78h.07c.41-1.94.91-3.86 1.46-5.71l2.06-6.91h3.89l-5.51 16.18h-4.27zM511.74 155.5l-1.15 4.15h-3.79l4.94-16.18h4.8l5 16.18h-3.94l-1.25-4.15h-4.63zm4.1-2.74l-1-3.43c-.29-1-.58-2.16-.82-3.12-.24 1-.48 2.18-.74 3.12l-1 3.43h3.58zM523.71 143.69a32.18 32.18 0 0 1 4.87-.34c2.4 0 4.08.36 5.23 1.27a4.11 4.11 0 0 1 1.49 3.38 4.29 4.29 0 0 1-2.86 4v.07c1.13.46 1.75 1.54 2.16 3 .5 1.82 1 3.94 1.32 4.56h-3.75a20.32 20.32 0 0 1-1.13-3.77c-.43-2-1.13-2.57-2.62-2.59h-1.1v6.36h-3.62v-16zm3.63 7h1.44c1.82 0 2.9-.91 2.9-2.33s-1-2.23-2.69-2.26a9.15 9.15 0 0 0-1.66.12v4.46zM537.95 143.69a32.67 32.67 0 0 1 4.94-.34c3.07 0 5.06.55 6.63 1.73a7.16 7.16 0 0 1 2.74 6.1 8.21 8.21 0 0 1-2.69 6.55c-1.7 1.42-4.3 2.09-7.46 2.09a31.75 31.75 0 0 1-4.15-.24v-15.89zm3.67 13.2a6.76 6.76 0 0 0 1.27.07c3.31 0 5.47-1.8 5.47-5.66 0-3.36-1.94-5.14-5.09-5.14a7.63 7.63 0 0 0-1.66.14v10.58z"/><circle class="cls-2" cx="431.52" cy="180.76" r="14.53"/></g><g id="e05"><circle class="cls-2" cx="398.08" cy="219.59" r="14.53"/><path d="M451.31 143.48v6.22h6v-6.22h3.65v16.18h-3.65v-6.77h-6v6.77h-3.67v-16.18h3.67zM467.94 155.5l-1.15 4.15H463l4.94-16.18h4.8l5 16.18h-3.94l-1.25-4.15h-4.63zm4.1-2.74l-1-3.43c-.29-1-.58-2.16-.82-3.12-.24 1-.48 2.18-.74 3.12l-1 3.43h3.57zM479.91 143.69a32.18 32.18 0 0 1 4.87-.34c2.4 0 4.08.36 5.23 1.27a4.11 4.11 0 0 1 1.49 3.38 4.29 4.29 0 0 1-2.86 4v.07c1.13.46 1.75 1.54 2.16 3 .5 1.82 1 3.94 1.32 4.56h-3.75a20.32 20.32 0 0 1-1.13-3.77c-.43-2-1.13-2.57-2.62-2.59h-1.1v6.36h-3.62v-16zm3.63 7h1.44c1.82 0 2.9-.91 2.9-2.33s-1-2.23-2.69-2.26a9.15 9.15 0 0 0-1.66.12v4.46zM497.82 159.66l-5.18-16.18h4l2 6.84c.55 1.92 1.06 3.77 1.44 5.78h.07c.41-1.94.91-3.86 1.46-5.71l2.06-6.91h3.89l-5.51 16.18h-4.27zM511.74 155.5l-1.15 4.15h-3.79l4.94-16.18h4.8l5 16.18h-3.94l-1.25-4.15h-4.63zm4.1-2.74l-1-3.43c-.29-1-.58-2.16-.82-3.12-.24 1-.48 2.18-.74 3.12l-1 3.43h3.58zM523.71 143.69a32.18 32.18 0 0 1 4.87-.34c2.4 0 4.08.36 5.23 1.27a4.11 4.11 0 0 1 1.49 3.38 4.29 4.29 0 0 1-2.86 4v.07c1.13.46 1.75 1.54 2.16 3 .5 1.82 1 3.94 1.32 4.56h-3.75a20.32 20.32 0 0 1-1.13-3.77c-.43-2-1.13-2.57-2.62-2.59h-1.1v6.36h-3.62v-16zm3.63 7h1.44c1.82 0 2.9-.91 2.9-2.33s-1-2.23-2.69-2.26a9.15 9.15 0 0 0-1.66.12v4.46zM537.95 143.69a32.67 32.67 0 0 1 4.94-.34c3.07 0 5.06.55 6.63 1.73a7.16 7.16 0 0 1 2.74 6.1 8.21 8.21 0 0 1-2.69 6.55c-1.7 1.42-4.3 2.09-7.46 2.09a31.75 31.75 0 0 1-4.15-.24v-15.89zm3.67 13.2a6.76 6.76 0 0 0 1.27.07c3.31 0 5.47-1.8 5.47-5.66 0-3.36-1.94-5.14-5.09-5.14a7.63 7.63 0 0 0-1.66.14v10.58z"/></g><g id="e04"><path d="M430.23 293.65h-6.29v5.83h7v1.75h-9.1v-16.17h8.74v1.75h-6.65v5.11h6.29v1.73zM441.78 300.8a7.78 7.78 0 0 1-3.34.67c-3.5 0-5.78-2.38-5.78-5.93a5.9 5.9 0 0 1 6.24-6.17 7.06 7.06 0 0 1 2.93.6l-.48 1.63a4.9 4.9 0 0 0-2.45-.55c-2.66 0-4.1 2-4.1 4.39 0 2.69 1.73 4.34 4 4.34a6 6 0 0 0 2.59-.58zM454.62 295.33c0 4.3-3 6.17-5.78 6.17-3.14 0-5.57-2.3-5.57-6 0-3.89 2.54-6.17 5.76-6.17s5.59 2.45 5.59 6zm-9.22.12c0 2.54 1.46 4.46 3.53 4.46s3.53-1.9 3.53-4.51c0-2-1-4.46-3.48-4.46s-3.58 2.3-3.58 4.51zM457.28 284.19h2.11v17h-2.11v-17zM464.12 295.81a3.72 3.72 0 0 0 4 4 7.64 7.64 0 0 0 3.22-.6l.36 1.51a9.41 9.41 0 0 1-3.86.72c-3.58 0-5.71-2.35-5.71-5.86s2.06-6.26 5.45-6.26c3.79 0 4.8 3.34 4.8 5.47a8 8 0 0 1-.07 1h-8.16zm6.19-1.51c0-1.34-.55-3.43-2.93-3.43-2.14 0-3.07 2-3.24 3.43h6.17zM480.13 285.25a24.2 24.2 0 0 1 4-.31 6.65 6.65 0 0 1 4.54 1.34 4.35 4.35 0 0 1 1.42 3.38 4.76 4.76 0 0 1-1.25 3.46 6.7 6.7 0 0 1-4.95 1.78 7.18 7.18 0 0 1-1.68-.14v6.48h-2.09v-16zm2.09 7.8a7 7 0 0 0 1.73.17c2.52 0 4.06-1.22 4.06-3.46s-1.51-3.17-3.82-3.17a8.75 8.75 0 0 0-2 .17v6.29zM502.74 295.33c0 4.3-3 6.17-5.78 6.17-3.14 0-5.57-2.3-5.57-6 0-3.89 2.54-6.17 5.76-6.17s5.59 2.45 5.59 6zm-9.22.12c0 2.54 1.46 4.46 3.53 4.46s3.53-1.9 3.53-4.51c0-2-1-4.46-3.48-4.46s-3.58 2.3-3.58 4.51zM505.4 284.19h2.11v17h-2.11v-17zM511.83 289.62l2.54 6.86c.26.77.55 1.68.74 2.38.22-.7.46-1.58.74-2.42l2.3-6.82h2.23l-3.17 8.28c-1.51 4-2.54 6-4 7.27a5.73 5.73 0 0 1-2.59 1.37l-.53-1.78a5.59 5.59 0 0 0 1.85-1 6.41 6.41 0 0 0 1.78-2.35 1.52 1.52 0 0 0 .17-.5 1.83 1.83 0 0 0-.14-.55l-4.3-10.71h2.3zM524.91 286.28v3.34h3v1.61h-3v6.26c0 1.44.41 2.26 1.58 2.26a4.69 4.69 0 0 0 1.22-.14l.1 1.58a5.17 5.17 0 0 1-1.87.29 2.93 2.93 0 0 1-2.28-.89 4.31 4.31 0 0 1-.82-3v-6.36h-1.79v-1.61h1.8v-2.79zM531.34 295.81a3.72 3.72 0 0 0 4 4 7.64 7.64 0 0 0 3.22-.6l.36 1.51a9.41 9.41 0 0 1-3.86.72c-3.58 0-5.71-2.35-5.71-5.86s2.06-6.26 5.45-6.26c3.79 0 4.8 3.34 4.8 5.47a8.08 8.08 0 0 1-.07 1h-8.16zm6.19-1.51c0-1.34-.55-3.43-2.93-3.43-2.14 0-3.07 2-3.24 3.43h6.17zM550.47 300.8a7.77 7.77 0 0 1-3.34.67c-3.5 0-5.78-2.38-5.78-5.93a5.9 5.9 0 0 1 6.24-6.17 7.06 7.06 0 0 1 2.93.6l-.47 1.64a4.9 4.9 0 0 0-2.45-.55c-2.66 0-4.1 2-4.1 4.39 0 2.69 1.73 4.34 4 4.34a6 6 0 0 0 2.59-.58zM552.94 284.19h2.11v7.25a3.92 3.92 0 0 1 1.51-1.49 4.34 4.34 0 0 1 2.16-.6c1.56 0 4.06 1 4.06 5v6.91h-2.11v-6.67c0-1.87-.7-3.46-2.69-3.46a3 3 0 0 0-2.83 2.11 2.56 2.56 0 0 0-.14 1v7h-2.11v-17zM566.26 292.76c0-1.2 0-2.18-.1-3.14h1.89l.12 1.92a4.27 4.27 0 0 1 3.84-2.18c1.61 0 4.1 1 4.1 4.94v6.94h-2.06v-6.7c0-1.87-.7-3.43-2.69-3.43a3 3 0 0 0-2.83 2.16 3 3 0 0 0-.14 1v7h-2.11v-8.47zM581.94 286.35a1.31 1.31 0 0 1-2.62 0 1.29 1.29 0 0 1 1.32-1.32 1.25 1.25 0 0 1 1.3 1.32zm-2.35 14.88v-11.61h2.11v11.61h-2.11zM593.12 299.43a4.14 4.14 0 0 1-3.79 2.06c-2.71 0-4.92-2.35-4.92-5.88 0-4.34 2.81-6.26 5.26-6.26a3.82 3.82 0 0 1 3.58 2l.07-1.75h2c0 1-.07 2-.07 3.19v13.18h-2.11v-6.54zm0-5.11a3.59 3.59 0 0 0-.1-.89 3.09 3.09 0 0 0-3-2.4c-2.18 0-3.5 1.85-3.5 4.46 0 2.3 1.1 4.32 3.43 4.32a3.15 3.15 0 0 0 3-2.3 3.56 3.56 0 0 0 .17-1v-2.18zM608.43 298.07c0 1.2 0 2.26.1 3.17h-1.88l-.12-1.9a4.37 4.37 0 0 1-3.84 2.16c-1.82 0-4-1-4-5.09v-6.79h2.11v6.43c0 2.21.67 3.7 2.59 3.7a3.05 3.05 0 0 0 2.78-1.92 3.11 3.11 0 0 0 .19-1.08v-7.13h2.11v8.45zM613.11 295.81a3.72 3.72 0 0 0 4 4 7.64 7.64 0 0 0 3.22-.6l.36 1.51a9.41 9.41 0 0 1-3.86.72c-3.58 0-5.71-2.35-5.71-5.86s2.06-6.26 5.45-6.26c3.79 0 4.8 3.34 4.8 5.47a8.08 8.08 0 0 1-.07 1h-8.16zm6.19-1.51c0-1.34-.55-3.43-2.93-3.43-2.14 0-3.07 2-3.24 3.43h6.17z"/><circle class="cls-2" cx="399.08" cy="320.52" r="14.53"/></g><g id="p03"><path d="M485.27 322.78l-1.68 5.09h-2.16l5.5-16.18h2.52l5.52 16.18h-2.23l-1.69-5.09h-5.74zm5.3-1.63l-1.58-4.66c-.36-1.06-.6-2-.84-3-.24 1-.5 1.94-.82 2.93l-1.62 4.71h4.87zM507.05 310.83v14c0 1 0 2.21.1 3h-1.9l-.1-2a4.3 4.3 0 0 1-4 2.28c-2.81 0-5-2.38-5-5.9 0-3.86 2.38-6.24 5.21-6.24a3.88 3.88 0 0 1 3.5 1.78v-6.92h2.19zm-2.11 10.15a3.72 3.72 0 0 0-.1-.89 3.11 3.11 0 0 0-3-2.45c-2.18 0-3.48 1.92-3.48 4.49 0 2.35 1.15 4.3 3.43 4.3a3.18 3.18 0 0 0 3.1-2.52 3.66 3.66 0 0 0 .1-.91v-2zM516.95 327.87l-.17-1.46h-.07a4.33 4.33 0 0 1-3.55 1.73 3.31 3.31 0 0 1-3.55-3.34c0-2.81 2.5-4.34 7-4.32v-.25a2.4 2.4 0 0 0-2.64-2.69 5.79 5.79 0 0 0-3 .86l-.48-1.39a7.21 7.21 0 0 1 3.82-1c3.55 0 4.42 2.42 4.42 4.75v4.37a16.3 16.3 0 0 0 .19 2.78h-1.97zm-.31-5.93c-2.3 0-4.92.36-4.92 2.62a1.87 1.87 0 0 0 2 2 2.89 2.89 0 0 0 2.81-1.94 2.2 2.2 0 0 0 .12-.67v-2zM522.05 320.04c0-1.49 0-2.69-.1-3.79h1.9l.1 2a4.57 4.57 0 0 1 4.13-2.26c2.81 0 4.92 2.38 4.92 5.9 0 4.18-2.54 6.24-5.28 6.24a4.07 4.07 0 0 1-3.58-1.82v6.31h-2.09v-12.58zm2.09 3.1a4.77 4.77 0 0 0 .1.86 3.26 3.26 0 0 0 3.17 2.47c2.23 0 3.53-1.82 3.53-4.49 0-2.33-1.22-4.32-3.46-4.32a3.37 3.37 0 0 0-3.19 2.62 3.41 3.41 0 0 0-.14.86v2zM538.29 312.91v3.34h3v1.61h-3v6.27c0 1.44.41 2.26 1.58 2.26a4.68 4.68 0 0 0 1.22-.14l.1 1.58a5.17 5.17 0 0 1-1.87.29 2.93 2.93 0 0 1-2.28-.89 4.3 4.3 0 0 1-.82-3v-6.34h-1.8v-1.61h1.8v-2.78zM546.05 312.99a1.31 1.31 0 0 1-2.62 0 1.29 1.29 0 0 1 1.32-1.32 1.25 1.25 0 0 1 1.3 1.32zm-2.35 14.88v-11.62h2.11v11.62h-2.11zM550.12 316.25l2.28 6.53a30 30 0 0 1 .94 3h.07c.26-1 .6-1.92 1-3l2.26-6.53h2.21l-4.56 11.62h-2l-4.42-11.62h2.26zM561.78 322.44a3.72 3.72 0 0 0 4 4 7.64 7.64 0 0 0 3.22-.6l.36 1.51a9.41 9.41 0 0 1-3.86.72c-3.58 0-5.71-2.35-5.71-5.86s2.06-6.26 5.45-6.26c3.79 0 4.8 3.34 4.8 5.47a8.08 8.08 0 0 1-.07 1h-8.16zm6.19-1.51c0-1.34-.55-3.43-2.93-3.43-2.14 0-3.07 2-3.24 3.43h6.17zM577.79 311.91a20.25 20.25 0 0 1 3.82-.34 6.68 6.68 0 0 1 4.44 1.18 3.39 3.39 0 0 1 1.34 2.86 3.84 3.84 0 0 1-2.74 3.55 4.17 4.17 0 0 1 3.34 4.06 4.36 4.36 0 0 1-1.37 3.24c-1.13 1-3 1.51-5.59 1.51a24.48 24.48 0 0 1-3.24-.19v-15.87zm2.09 6.62h1.9c2.21 0 3.5-1.15 3.5-2.71 0-1.9-1.44-2.64-3.55-2.64a9 9 0 0 0-1.85.14v5.21zm0 7.75a11.21 11.21 0 0 0 1.75.1c2.16 0 4.15-.79 4.15-3.14s-1.9-3.12-4.18-3.12h-1.73v6.17zM600.45 324.7c0 1.2 0 2.26.1 3.17h-1.87l-.12-1.9a4.37 4.37 0 0 1-3.84 2.16c-1.82 0-4-1-4-5.09v-6.79h2.11v6.43c0 2.21.67 3.7 2.59 3.7a3.05 3.05 0 0 0 2.78-1.92 3.09 3.09 0 0 0 .19-1.08v-7.13h2.11v8.45zM603.95 319.87c0-1.37 0-2.54-.1-3.62h1.85l.07 2.28h.1a3.49 3.49 0 0 1 3.22-2.54 2.29 2.29 0 0 1 .6.07v2a3.18 3.18 0 0 0-.72-.07 3 3 0 0 0-2.83 2.71 5.85 5.85 0 0 0-.1 1v6.19h-2.09v-8zM611.89 319.87c0-1.37 0-2.54-.1-3.62h1.85l.07 2.28h.1a3.48 3.48 0 0 1 3.22-2.54 2.3 2.3 0 0 1 .6.07v2a3.19 3.19 0 0 0-.72-.07 3 3 0 0 0-2.83 2.71 6 6 0 0 0-.1 1v6.19h-2.09v-8zM630.05 321.96c0 4.3-3 6.17-5.79 6.17-3.14 0-5.57-2.3-5.57-6 0-3.89 2.54-6.17 5.76-6.17s5.6 2.45 5.6 6zm-9.22.12c0 2.54 1.46 4.46 3.53 4.46s3.53-1.9 3.53-4.51c0-2-1-4.46-3.48-4.46s-3.61 2.3-3.61 4.56zM633.35 316.25l1.54 5.9c.34 1.3.65 2.5.86 3.7h.07c.26-1.18.65-2.42 1-3.67l1.9-5.93h1.78l1.8 5.81c.43 1.39.77 2.62 1 3.79h.07a35.07 35.07 0 0 1 .89-3.77l1.66-5.83h2.13l-3.75 11.62h-1.92l-1.78-5.54a39 39 0 0 1-1-3.82 34.35 34.35 0 0 1-1.06 3.84l-1.87 5.52h-1.92l-3.5-11.62h2.16zM649.74 325.71a5.53 5.53 0 0 0 2.78.84c1.54 0 2.26-.77 2.26-1.73s-.6-1.56-2.16-2.14c-2.09-.74-3.07-1.9-3.07-3.29 0-1.87 1.51-3.41 4-3.41a5.8 5.8 0 0 1 2.86.72l-.53 1.54a4.52 4.52 0 0 0-2.38-.67 1.7 1.7 0 0 0-1.94 1.58c0 1 .7 1.39 2.21 2 2 .77 3 1.78 3 3.5 0 2-1.58 3.48-4.34 3.48a6.62 6.62 0 0 1-3.26-.79zM664.43 320.59v1.54h-5.93v-1.56h5.93zM669.35 327.87l-4.1-16.18h2.21l1.92 8.18c.48 2 .91 4 1.2 5.59.26-1.61.77-3.53 1.32-5.62l2.16-8.16h2.18l2 8.21c.46 1.92.89 3.84 1.13 5.54.34-1.78.79-3.58 1.3-5.59l2.14-8.16h2.24l-4.58 16.18h-2.18l-2-8.42a48.69 48.69 0 0 1-1.06-5.28 50.17 50.17 0 0 1-1.25 5.28l-2.3 8.42h-2.33zM686.82 310.83h2.11v7.25a3.92 3.92 0 0 1 1.51-1.49 4.34 4.34 0 0 1 2.16-.6c1.56 0 4.06 1 4.06 5v6.91h-2.11v-6.67c0-1.87-.7-3.46-2.69-3.46a3 3 0 0 0-2.83 2.11 2.55 2.55 0 0 0-.14 1v7h-2.11v-17zM701.32 322.44a3.72 3.72 0 0 0 4 4 7.64 7.64 0 0 0 3.22-.6l.36 1.51a9.41 9.41 0 0 1-3.85.78c-3.58 0-5.71-2.35-5.71-5.86s2.06-6.26 5.45-6.26c3.79 0 4.8 3.34 4.8 5.47a8.08 8.08 0 0 1-.07 1h-8.16zm6.19-1.51c0-1.34-.55-3.43-2.93-3.43-2.14 0-3.07 2-3.24 3.43h6.17zM713.34 322.44a3.72 3.72 0 0 0 4 4 7.64 7.64 0 0 0 3.22-.6l.36 1.51a9.41 9.41 0 0 1-3.87.78c-3.58 0-5.71-2.35-5.71-5.86s2.06-6.26 5.45-6.26c3.79 0 4.8 3.34 4.8 5.47a7.88 7.88 0 0 1-.07 1h-8.16zm6.19-1.51c0-1.34-.55-3.43-2.93-3.43-2.14 0-3.07 2-3.24 3.43h6.17zM724.19 310.83h2.11v17h-2.11v-17zM731.05 322.44a3.72 3.72 0 0 0 4 4 7.64 7.64 0 0 0 3.22-.6l.36 1.51a9.41 9.41 0 0 1-3.86.72c-3.58 0-5.71-2.35-5.71-5.86s2.06-6.26 5.45-6.26c3.79 0 4.8 3.34 4.8 5.47a7.88 7.88 0 0 1-.07 1h-8.19zm6.19-1.51c0-1.34-.55-3.43-2.93-3.43-2.14 0-3.07 2-3.24 3.43h6.17zM741.88 319.87c0-1.37 0-2.54-.1-3.62h1.85l.07 2.28h.1a3.49 3.49 0 0 1 3.22-2.54 2.28 2.28 0 0 1 .6.07v2a3.18 3.18 0 0 0-.72-.07 3 3 0 0 0-2.83 2.71 6 6 0 0 0-.1 1v6.19h-2.09v-8z"/><circle class="cls-2" cx="447.22" cy="335.87" r="14.53"/></g><g id="p04"><path d="M272.69 240.61a24.2 24.2 0 0 1 4-.31 6.64 6.64 0 0 1 4.54 1.34 4.35 4.35 0 0 1 1.42 3.38 4.76 4.76 0 0 1-1.25 3.46 6.7 6.7 0 0 1-4.94 1.78 7.18 7.18 0 0 1-1.68-.14v6.48h-2.09v-16zm2.09 7.8a7 7 0 0 0 1.73.17c2.52 0 4.06-1.22 4.06-3.46s-1.51-3.17-3.82-3.17a8.76 8.76 0 0 0-2 .17v6.29zM285 248.61c0-1.37 0-2.54-.1-3.62h1.85l.07 2.28h.1a3.49 3.49 0 0 1 3.22-2.54 2.29 2.29 0 0 1 .6.07v2a3.19 3.19 0 0 0-.72-.07 3 3 0 0 0-2.83 2.71 5.91 5.91 0 0 0-.1 1v6.19H285v-8zM299.16 256.6l-.17-1.47h-.07a4.33 4.33 0 0 1-3.55 1.73 3.31 3.31 0 0 1-3.55-3.34c0-2.81 2.5-4.34 7-4.32v-.24a2.39 2.39 0 0 0-2.64-2.69 5.79 5.79 0 0 0-3 .86l-.48-1.39a7.21 7.21 0 0 1 3.82-1c3.55 0 4.42 2.42 4.42 4.75v4.34a16.36 16.36 0 0 0 .19 2.78h-1.92zm-.31-5.93c-2.3 0-4.92.36-4.92 2.62a1.87 1.87 0 0 0 2 2 2.89 2.89 0 0 0 2.81-1.94 2.2 2.2 0 0 0 .12-.67v-2zM305.28 244.98l1.66 2.5c.43.65.79 1.25 1.18 1.9h.07c.38-.7.77-1.3 1.15-1.92l1.63-2.47h2.28l-4 5.62 4.08 6h-2.4l-1.7-2.62c-.46-.67-.84-1.32-1.25-2-.38.7-.79 1.32-1.22 2l-1.71 2.61h-2.33l4.13-5.93-3.94-5.69h2.35zM315.19 254.06a7.4 7.4 0 0 0 3.74 1.06c2.14 0 3.38-1.13 3.38-2.76s-.86-2.38-3-3.22c-2.64-.94-4.27-2.3-4.27-4.58 0-2.52 2.09-4.39 5.23-4.39a7.35 7.35 0 0 1 3.58.79l-.58 1.7a6.44 6.44 0 0 0-3.07-.77c-2.21 0-3 1.32-3 2.42 0 1.51 1 2.26 3.22 3.12 2.74 1.06 4.13 2.38 4.13 4.75s-1.85 4.66-5.66 4.66a8.36 8.36 0 0 1-4.13-1zM327.24 248.78c0-1.49 0-2.69-.1-3.79h1.91l.1 2a4.57 4.57 0 0 1 4.13-2.26c2.81 0 4.92 2.38 4.92 5.9 0 4.18-2.54 6.24-5.28 6.24a4.08 4.08 0 0 1-3.58-1.82v6.31h-2.09v-12.58zm2.09 3.1a4.73 4.73 0 0 0 .1.86 3.26 3.26 0 0 0 3.17 2.47c2.23 0 3.53-1.82 3.53-4.49 0-2.33-1.22-4.32-3.46-4.32a3.37 3.37 0 0 0-3.19 2.62 3.41 3.41 0 0 0-.14.86v2zM351.41 250.7c0 4.3-3 6.17-5.78 6.17-3.14 0-5.57-2.3-5.57-6 0-3.89 2.54-6.17 5.76-6.17s5.59 2.43 5.59 6zm-9.22.12c0 2.54 1.46 4.46 3.53 4.46s3.53-1.9 3.53-4.51c0-2-1-4.46-3.48-4.46s-3.58 2.3-3.58 4.51zM356.61 241.65v3.34h3v1.61h-3v6.26c0 1.44.41 2.26 1.58 2.26a4.68 4.68 0 0 0 1.22-.14l.1 1.58a5.17 5.17 0 0 1-1.87.29 2.93 2.93 0 0 1-2.28-.89 4.3 4.3 0 0 1-.82-3v-6.34h-1.8v-1.61h1.8v-2.78zM361.72 254.44a5.53 5.53 0 0 0 2.78.84c1.54 0 2.26-.77 2.26-1.73s-.6-1.56-2.16-2.14c-2.09-.74-3.07-1.9-3.07-3.29 0-1.87 1.51-3.41 4-3.41a5.8 5.8 0 0 1 2.86.72l-.53 1.54a4.52 4.52 0 0 0-2.38-.67 1.7 1.7 0 0 0-1.94 1.58c0 1 .7 1.39 2.21 2 2 .77 3 1.78 3 3.5 0 2-1.58 3.48-4.34 3.48a6.62 6.62 0 0 1-3.26-.79z"/><circle class="cls-2" cx="264.31" cy="276.69" r="14.53"/></g><g id="h01"><path d="M68.63 304.75a29.17 29.17 0 0 1 4.73-.34 8.93 8.93 0 0 1 4.78.91 3.52 3.52 0 0 1 1.94 3.17 3.66 3.66 0 0 1-2.66 3.46 4 4 0 0 1 3.22 4 4.31 4.31 0 0 1-1.68 3.43c-1.18.94-3.14 1.46-6.36 1.46a28.38 28.38 0 0 1-4-.24v-15.85zm3.62 6.19h1.2c1.92 0 3-.79 3-2s-.94-1.87-2.59-1.87a10 10 0 0 0-1.56.1v3.77zm0 7.18a11.58 11.58 0 0 0 1.42 0c1.66 0 3.12-.62 3.12-2.33s-1.46-2.28-3.29-2.28h-1.25v4.62zM83.12 304.75a32.16 32.16 0 0 1 4.87-.34c2.4 0 4.08.36 5.23 1.27a4.11 4.11 0 0 1 1.49 3.38 4.29 4.29 0 0 1-2.86 4v.07c1.13.46 1.75 1.54 2.16 3 .5 1.82 1 3.94 1.32 4.56h-3.74a20.28 20.28 0 0 1-1.13-3.77c-.43-2-1.13-2.57-2.62-2.59h-1.1v6.36h-3.62v-16zm3.62 7h1.44c1.82 0 2.9-.91 2.9-2.33s-1-2.23-2.69-2.26a9.16 9.16 0 0 0-1.66.12v4.46zM106.98 313.87h-6v3.84h6.65v3H97.36v-16.18h10v3h-6.31v3.36h6v3zM113.94 316.55l-1.15 4.15H109l4.94-16.18h4.8l5 16.18h-3.94l-1.25-4.15h-4.63zm4.1-2.74l-1-3.43c-.29-1-.58-2.16-.82-3.12-.24 1-.48 2.18-.74 3.12l-1 3.43h3.57zM125.91 304.53h3.62v7.15h.07c.36-.62.74-1.2 1.1-1.78l3.67-5.38h4.49l-5.35 6.89 5.64 9.29h-4.27l-4-7-1.39 1.7v5.28h-3.62v-16.15zM140.65 304.75a32.68 32.68 0 0 1 4.94-.34c3.07 0 5.06.55 6.62 1.73a7.16 7.16 0 0 1 2.74 6.1 8.21 8.21 0 0 1-2.69 6.55c-1.7 1.42-4.3 2.09-7.46 2.09a31.76 31.76 0 0 1-4.15-.24v-15.89zm3.67 13.2a6.76 6.76 0 0 0 1.27.07c3.31 0 5.47-1.8 5.47-5.66 0-3.36-1.94-5.14-5.09-5.14a7.62 7.62 0 0 0-1.66.14v10.58zM160.74 316.55l-1.15 4.15h-3.79l4.94-16.18h4.8l5 16.18h-3.94l-1.25-4.15h-4.63zm4.1-2.74l-1-3.43c-.29-1-.58-2.16-.82-3.12-.24 1-.48 2.18-.74 3.12l-1 3.43h3.58zM172.71 320.71v-16.18h4.27l3.36 5.93a47 47 0 0 1 2.64 5.54h.07a60 60 0 0 1-.31-6.74v-4.73h3.36v16.18h-3.84l-3.46-6.24a60 60 0 0 1-2.81-5.71h-.07c.1 2.14.14 4.42.14 7.06v4.87h-3.36zM201.16 320.25a10.43 10.43 0 0 1-4.15.7c-5.59 0-8.47-3.48-8.47-8.09 0-5.52 3.94-8.59 8.83-8.59a9.53 9.53 0 0 1 4 .72l-.74 2.9a7.9 7.9 0 0 0-3.07-.6c-2.9 0-5.16 1.75-5.16 5.35 0 3.24 1.92 5.28 5.18 5.28a9.14 9.14 0 0 0 3-.53zM213.18 313.87h-6v3.84h6.65v3h-10.28v-16.18h10v3h-6.31v3.36h6v3z"/><circle class="cls-2" cx="234.99" cy="311.95" r="14.53"/></g><g id="junction_w04_e_05"><path id="junction_w04_e_05-2" data-name="junction_w04_e_05" class="cls-8" d="M445.05 180.75a14.52 14.52 0 0 1-14.52 14.53 13.5 13.5 0 0 1-2.31-.19l-16.78 18.72a14.54 14.54 0 1 1-13.4-8.89h1l17.68-19.72a14.52 14.52 0 1 1 28.33-4.45z"/></g><g id="junction_p04_h01"><path id="junction_p04_h01-2" data-name="junction_p04_h01" class="cls-8" d="M278.84 276.68a14.55 14.55 0 0 1-17.72 14.18l-12.48 15.9a14.71 14.71 0 0 1 .86 4.95 14.52 14.52 0 1 1-14.52-14.58 14.21 14.21 0 0 1 2.93.3l12.65-16.12a14.53 14.53 0 1 1 28.28-4.63z"/></g><g id="junction_p03_w04"><path id="junction_p03_w04-2" data-name="junction_p03_w04" class="cls-8" d="M462.37 333.01a14.53 14.53 0 0 1-28.42 6.07l-25.17-8.33a14.54 14.54 0 1 1 4.35-13.62v.16l24.92 8.22a14.38 14.38 0 0 1 7.14-3.78 14.54 14.54 0 0 1 17.18 11.28z"/></g></svg>