<svg id="Layer_1" data-name="Layer 1" xmlns="http://www.w3.org/2000/svg" viewBox="0 0 108.08 51.36"><defs><style>.cls-1{fill:#d14739;}.cls-2{isolation:isolate;}.cls-3{fill:#fff;}</style></defs><title>wl</title><g id="w-label"><path class="cls-1" d="M25.68 0H82.4a25.68 25.68 0 0 1 25.68 25.68A25.68 25.68 0 0 1 82.4 51.36H25.68A25.68 25.68 0 0 1 0 25.68 25.68 25.68 0 0 1 25.68 0z"/><g class="cls-2"><path class="cls-3" d="M37.42 38.52l-5.76-24.26h5.87l1.84 10c.54 2.88 1 6 1.44 8.46h.07c.4-2.63 1-5.54 1.58-8.53l2.05-9.93h5.83l1.94 10.22c.54 2.84.94 5.44 1.3 8.14h.07c.36-2.7.9-5.54 1.4-8.42l2-9.93h5.58l-6.28 24.25h-5.94l-2.05-10.44c-.47-2.45-.86-4.72-1.15-7.49h-.07c-.43 2.74-.83 5-1.4 7.49l-2.3 10.44h-6zM65.46 14.26H71v19.65h9.65v4.61H65.46V14.26z"/></g></g></svg>