<svg id="Layer_1" data-name="Layer 1" xmlns="http://www.w3.org/2000/svg" viewBox="0 0 741.39 100"><defs><style>.cls-1{fill:#fff;stroke:#000;stroke-width:4.4px;}</style></defs><title>y_logo</title><g id="full_name"><path d="M125.02 17.57v8.55h8.28v-8.55h5v22.25h-5v-9.31h-8.28v9.31h-5V17.57h5zM147.82 19.18a2.52 2.52 0 0 1-2.71 2.51 2.53 2.53 0 1 1 0-5 2.52 2.52 0 0 1 2.71 2.49zm-5.18 20.63V23.67h5v16.14h-5zM151.7 28.99c0-2.38-.07-3.93-.13-5.31h4.32l.17 3h.13a4.74 4.74 0 0 1 4.36-3.33 5.17 5.17 0 0 1 1.06.07v4.72a7.2 7.2 0 0 0-1.35-.13 3.23 3.23 0 0 0-3.43 2.54 5.92 5.92 0 0 0-.1 1.12v8.19h-5V28.99zM179.9 31.56c0 5.91-4.19 8.61-8.52 8.61-4.72 0-8.35-3.1-8.35-8.32s3.43-8.55 8.61-8.55a7.85 7.85 0 0 1 8.26 8.26zm-11.68.17c0 2.77 1.16 4.85 3.3 4.85 1.95 0 3.2-1.95 3.2-4.85 0-2.41-.92-4.85-3.2-4.85s-3.31 2.48-3.31 4.85zM183 16.36h5v9.21h.07a6 6 0 0 1 2-1.65 5.64 5.64 0 0 1 2.63-.56c3.2 0 5.64 2.21 5.64 7.06v9.44h-5v-8.88c0-2.11-.73-3.56-2.61-3.56a2.67 2.67 0 0 0-2.51 1.75 3.19 3.19 0 0 0-.17 1.12v9.57h-5v-23.5zM207.52 19.18a2.52 2.52 0 0 1-2.71 2.51 2.53 2.53 0 1 1 0-5 2.52 2.52 0 0 1 2.71 2.49zm-5.18 20.63V23.67h5v16.14h-5zM211.34 35.42a9.81 9.81 0 0 0 4.32 1.22c1.52 0 2.15-.53 2.15-1.35s-.5-1.22-2.38-1.85c-3.33-1.12-4.62-2.94-4.59-4.85 0-3 2.57-5.28 6.57-5.28a10.83 10.83 0 0 1 4.55.92l-.89 3.47a7.92 7.92 0 0 0-3.5-.92c-1.22 0-1.91.5-1.91 1.32s.63 1.16 2.61 1.85c3.07 1.06 4.36 2.61 4.39 5 0 3-2.38 5.21-7 5.21a11.42 11.42 0 0 1-5.21-1.12zM234.87 39.81l-.3-1.62h-.1a5.81 5.81 0 0 1-4.62 2 5 5 0 0 1-5.21-5c0-4.19 3.76-6.2 9.47-6.17v-.23c0-.86-.46-2.08-2.94-2.08a9.08 9.08 0 0 0-4.47 1.25l-.92-3.23a13.32 13.32 0 0 1 6.27-1.42c5.38 0 7.1 3.17 7.1 7v5.61a25 25 0 0 0 .23 3.93h-4.52zm-.59-7.62c-2.64 0-4.69.59-4.69 2.54a1.8 1.8 0 0 0 2 1.91 2.74 2.74 0 0 0 2.61-1.85 3.6 3.6 0 0 0 .1-.86v-1.75zM253.78 39.81V30.7l-7-13.14h5.74l2.28 5.35c.69 1.62 1.15 2.81 1.72 4.26h.07c.5-1.39 1-2.67 1.68-4.26l2.24-5.35h5.64l-7.33 13v9.27h-5zM274.47 39.81l-.3-1.62h-.1a5.81 5.81 0 0 1-4.62 2 5 5 0 0 1-5.21-5c0-4.19 3.76-6.2 9.47-6.17v-.23c0-.86-.46-2.08-2.94-2.08a9.08 9.08 0 0 0-4.46 1.22l-.92-3.23a13.32 13.32 0 0 1 6.31-1.34c5.38 0 7.1 3.17 7.1 7v5.61a25 25 0 0 0 .23 3.93h-4.52zm-.59-7.62c-2.64 0-4.69.59-4.69 2.54a1.8 1.8 0 0 0 2 1.91 2.74 2.74 0 0 0 2.61-1.85 3.6 3.6 0 0 0 .1-.86v-1.75zM282.7 28.82c0-2-.07-3.73-.13-5.15h4.22l.23 2.18h.1a5.6 5.6 0 0 1 4.88-2.54 4.57 4.57 0 0 1 4.42 2.74h.07a7.23 7.23 0 0 1 2.08-1.95 5.83 5.83 0 0 1 3.13-.74c3.1 0 5.45 2.18 5.45 7v9.51h-4.88v-8.78c0-2.34-.76-3.7-2.38-3.7a2.46 2.46 0 0 0-2.31 1.75 4.19 4.19 0 0 0-.2 1.29v9.44h-4.88v-9c0-2-.73-3.43-2.31-3.43a2.55 2.55 0 0 0-2.34 1.81 3.33 3.33 0 0 0-.2 1.25v9.41h-4.95v-11zM320.28 39.81l-.3-1.62h-.1a5.81 5.81 0 0 1-4.62 2 5 5 0 0 1-5.21-5c0-4.19 3.76-6.2 9.47-6.17v-.23c0-.86-.46-2.08-2.94-2.08a9.08 9.08 0 0 0-4.46 1.22l-.92-3.23a13.32 13.32 0 0 1 6.27-1.42c5.38 0 7.1 3.17 7.1 7v5.61a25 25 0 0 0 .23 3.93h-4.52zm-.58-7.62c-2.64 0-4.69.59-4.69 2.54a1.8 1.8 0 0 0 2 1.91 2.74 2.74 0 0 0 2.61-1.85 3.6 3.6 0 0 0 .1-.86v-1.75zM344.17 16.36v18.61c0 1.82.07 3.73.13 4.82h-4.46l-.23-2.38h-.07a5.63 5.63 0 0 1-5 2.74c-3.83 0-6.9-3.27-6.9-8.28 0-5.45 3.37-8.58 7.23-8.58a4.92 4.92 0 0 1 4.26 1.82h.07v-8.75h5zm-5 14.13a8 8 0 0 0-.07-.89 3 3 0 0 0-2.94-2.48c-2.28 0-3.47 2-3.47 4.59 0 2.74 1.35 4.46 3.43 4.46a2.94 2.94 0 0 0 2.9-2.41 4.26 4.26 0 0 0 .13-1.15V30.5zM357.37 39.81l-.3-1.62h-.1a5.81 5.81 0 0 1-4.62 2 5 5 0 0 1-5.21-5c0-4.19 3.76-6.2 9.47-6.17v-.23c0-.86-.46-2.08-2.94-2.08a9.08 9.08 0 0 0-4.46 1.22l-.92-3.23a13.32 13.32 0 0 1 6.27-1.42c5.38 0 7.1 3.17 7.1 7v5.61a25 25 0 0 0 .23 3.93h-4.52zm-.59-7.62c-2.64 0-4.69.59-4.69 2.54a1.8 1.8 0 0 0 2 1.91 2.74 2.74 0 0 0 2.61-1.85 3.6 3.6 0 0 0 .1-.86v-1.75z"/></g><g id="not_full_name"><circle class="cls-1" cx="50" cy="50" r="47.8"/><path d="M56.7 29.58L21.31 17.95 16.7 32.48l25.46 8.37c2.4-1.86 4.8-3.73 7.26-5.77s5.16-3.31 7.28-5.5z"/><path d="M57.6 39.2c-1.56-3.25-3.2-6.5-4.6-9.8-1.19-.41-2.38-.83-3.57-1.17-1.06 1.58-2.26 3.06-3.23 4.77-1.55 2.71-3.1 5.23-4.65 7.75v40.8h16.9v-40.8h.25a7.9 7.9 0 0 1-1.1-1.55z"/><path d="M43.96 29.82l35.39-11.63 4.66 14.52-25.46 8.37c-2.4-1.86-4.8-3.73-7.26-5.77s-5.19-3.3-7.33-5.49zM120.3 55.56a29.93 29.93 0 0 1 5.51-.46c3.07 0 5 .56 6.44 1.82a5.54 5.54 0 0 1 1.75 4.22 5.84 5.84 0 0 1-4.19 5.68v.1c1.72.59 2.74 2.18 3.27 4.49a35.39 35.39 0 0 0 1.72 6.11h-3a28.83 28.83 0 0 1-1.48-5.31c-.66-3.07-1.85-4.22-4.46-4.32h-2.71v9.64h-2.85V55.56zm2.87 10.13h2.94c3.07 0 5-1.68 5-4.22 0-2.87-2.08-4.13-5.12-4.16a11.76 11.76 0 0 0-2.84.26v8.12zM147.19 77.51l-.23-2h-.1a6 6 0 0 1-4.88 2.38 4.55 4.55 0 0 1-4.88-4.59c0-3.86 3.43-6 9.6-5.94v-.33c0-1.32-.36-3.7-3.63-3.7a8 8 0 0 0-4.16 1.19l-.66-1.91a9.91 9.91 0 0 1 5.25-1.42c4.88 0 6.07 3.33 6.07 6.53v6a22.47 22.47 0 0 0 .26 3.83h-2.64zm-.42-8.15c-3.17-.07-6.77.5-6.77 3.6a2.57 2.57 0 0 0 2.74 2.77 4 4 0 0 0 3.86-2.67 3 3 0 0 0 .17-.92v-2.78zM154.25 66.75c0-2-.07-3.7-.13-5.21h2.58l.13 2.74h.07a6.28 6.28 0 0 1 5.68-3.1c3.86 0 6.77 3.27 6.77 8.12 0 5.74-3.5 8.58-7.26 8.58a5.6 5.6 0 0 1-4.92-2.51h-.07v8.68h-2.87v-17.3zm2.87 4.26a6.56 6.56 0 0 0 .13 1.19 4.48 4.48 0 0 0 4.36 3.4c3.07 0 4.85-2.51 4.85-6.17 0-3.2-1.68-5.94-4.75-5.94a4.64 4.64 0 0 0-4.39 3.6 4.71 4.71 0 0 0-.2 1.19v2.74zM176.27 57.05a1.8 1.8 0 0 1-3.6 0 1.77 1.77 0 0 1 1.81-1.82 1.72 1.72 0 0 1 1.79 1.82zm-3.23 20.46v-16h2.9v16h-2.9zM194.55 54.08v19.28c0 1.42 0 3 .13 4.13h-2.61l-.13-2.77h-.07a5.91 5.91 0 0 1-5.45 3.14c-3.86 0-6.83-3.27-6.83-8.12 0-5.31 3.27-8.58 7.16-8.58a5.34 5.34 0 0 1 4.82 2.44h.07v-9.54h2.9zm-2.9 14a5.12 5.12 0 0 0-.13-1.22 4.27 4.27 0 0 0-4.19-3.37c-3 0-4.79 2.64-4.79 6.17 0 3.23 1.58 5.91 4.72 5.91a4.37 4.37 0 0 0 4.26-3.46 5 5 0 0 0 .13-1.25v-2.77zM209.33 57.71h-6.77v-2.44h16.47v2.44h-6.8v19.8h-2.9v-19.8zM219.92 66.52c0-1.88 0-3.5-.13-5h2.54l.1 3.14h.13a4.79 4.79 0 0 1 4.42-3.5 3.13 3.13 0 0 1 .83.1V64a4.34 4.34 0 0 0-1-.1c-2 0-3.5 1.55-3.89 3.73a8.17 8.17 0 0 0-.13 1.35v8.52h-2.87v-11zM239.39 77.51l-.23-2h-.1a6 6 0 0 1-4.88 2.38 4.55 4.55 0 0 1-4.88-4.59c0-3.86 3.43-6 9.6-5.94v-.33c0-1.32-.36-3.7-3.63-3.7a8 8 0 0 0-4.16 1.19l-.66-1.91a9.91 9.91 0 0 1 5.25-1.42c4.88 0 6.07 3.33 6.07 6.53v6a22.47 22.47 0 0 0 .26 3.83h-2.64zm-.42-8.15c-3.17-.07-6.77.5-6.77 3.6a2.57 2.57 0 0 0 2.74 2.77 4 4 0 0 0 3.86-2.67 3 3 0 0 0 .17-.92v-2.78zM246.46 65.86c0-1.65 0-3-.13-4.32h2.57l.17 2.64h.07a5.87 5.87 0 0 1 5.28-3c2.21 0 5.64 1.32 5.64 6.8v9.54h-2.9v-9.21c0-2.57-1-4.72-3.7-4.72a4.13 4.13 0 0 0-3.89 3 4.18 4.18 0 0 0-.2 1.35v9.6h-2.9V65.86zM264.37 74.54a7.61 7.61 0 0 0 3.83 1.16c2.11 0 3.1-1.06 3.1-2.38s-.83-2.15-3-2.94c-2.87-1-4.22-2.61-4.22-4.52 0-2.57 2.08-4.69 5.51-4.69a8 8 0 0 1 3.93 1l-.73 2.11a6.22 6.22 0 0 0-3.27-.92c-1.72 0-2.67 1-2.67 2.18s1 1.91 3 2.71c2.77 1.06 4.19 2.44 4.19 4.82 0 2.81-2.18 4.79-6 4.79a9.11 9.11 0 0 1-4.49-1.09zM281.07 57.05a1.8 1.8 0 0 1-3.6 0 1.77 1.77 0 0 1 1.81-1.82 1.72 1.72 0 0 1 1.79 1.82zm-3.23 20.46v-16h2.86v16h-2.9zM289.06 56.95v4.59h4.16v2.21h-4.16v8.61c0 2 .56 3.1 2.18 3.1a6.48 6.48 0 0 0 1.68-.2l.13 2.18a7.1 7.1 0 0 1-2.57.4 4 4 0 0 1-3.14-1.22c-.82-.86-1.12-2.28-1.12-4.16v-8.71h-2.52v-2.21h2.48v-3.83zM301.04 78.83l9.21-23.93h2.24l-9.24 23.93h-2.21zM321.89 55.27h2.87V66h.1c.59-.86 1.19-1.65 1.75-2.38l6.8-8.35h3.56l-8.05 9.44 8.68 12.81h-3.4l-7.33-10.92-2.11 2.44v8.48h-2.87V55.27zM341.3 70.05c.07 3.93 2.57 5.54 5.48 5.54a10.5 10.5 0 0 0 4.42-.83l.5 2.08a12.94 12.94 0 0 1-5.31 1c-4.92 0-7.85-3.23-7.85-8.05s2.84-8.61 7.49-8.61c5.21 0 6.6 4.59 6.6 7.52a10.88 10.88 0 0 1-.1 1.35H341.3zm8.52-2.08c0-1.85-.76-4.72-4-4.72-2.94 0-4.22 2.71-4.46 4.72h8.48zM357.27 61.54l3.5 9.44c.36 1.06.76 2.31 1 3.27h.07c.3-1 .63-2.18 1-3.33l3.17-9.37h3.07l-4.36 11.39c-2.08 5.48-3.5 8.28-5.48 10a7.87 7.87 0 0 1-3.56 1.88l-.69-2.46a7.69 7.69 0 0 0 2.54-1.42 8.81 8.81 0 0 0 2.44-3.23 2.09 2.09 0 0 0 .23-.69 2.53 2.53 0 0 0-.2-.76l-5.91-14.72h3.17zM378.85 55.56a27.85 27.85 0 0 1 5.25-.46c2.87 0 4.72.5 6.11 1.62a4.66 4.66 0 0 1 1.85 3.93 5.28 5.28 0 0 1-3.76 4.88v.07a5.73 5.73 0 0 1 4.59 5.58 6 6 0 0 1-1.88 4.46c-1.55 1.42-4.06 2.08-7.69 2.08a33.39 33.39 0 0 1-4.46-.26v-21.9zm2.87 9.11h2.61c3 0 4.82-1.58 4.82-3.73 0-2.61-2-3.63-4.88-3.63a12.33 12.33 0 0 0-2.54.2v7.16zm-.02 10.69a15.24 15.24 0 0 0 2.41.13c3 0 5.71-1.09 5.71-4.32 0-3-2.61-4.29-5.74-4.29h-2.38v8.48zM410 73.15c0 1.65 0 3.1.13 4.36h-2.57l-.17-2.61h-.07a6 6 0 0 1-5.28 3c-2.51 0-5.51-1.39-5.51-7v-9.34h2.9v8.8c0 3 .92 5.08 3.56 5.08a4.2 4.2 0 0 0 3.83-2.64 4.25 4.25 0 0 0 .26-1.49v-9.8h2.9v11.62zM414.42 74.54a7.6 7.6 0 0 0 3.83 1.16c2.11 0 3.1-1.06 3.1-2.38s-.83-2.15-3-2.94c-2.87-1-4.22-2.61-4.22-4.52 0-2.57 2.08-4.69 5.51-4.69a8 8 0 0 1 3.93 1l-.73 2.11a6.22 6.22 0 0 0-3.27-.92c-1.72 0-2.67 1-2.67 2.18s1 1.91 3 2.71c2.77 1.06 4.19 2.44 4.19 4.82 0 2.81-2.18 4.79-6 4.79a9.11 9.11 0 0 1-4.49-1.09zM434.98 55.56a29.92 29.92 0 0 1 5.51-.46c3.07 0 5 .56 6.44 1.82a5.54 5.54 0 0 1 1.75 4.22 5.84 5.84 0 0 1-4.19 5.68v.1c1.72.59 2.74 2.18 3.27 4.49a35.41 35.41 0 0 0 1.72 6.11h-3a28.77 28.77 0 0 1-1.49-5.31c-.66-3.07-1.85-4.22-4.46-4.32h-2.71v9.64h-2.87V55.56zm2.87 10.13h2.94c3.07 0 5-1.68 5-4.22 0-2.87-2.08-4.13-5.12-4.16a11.76 11.76 0 0 0-2.84.26v8.12zM467.22 69.36c0 5.91-4.09 8.48-8 8.48-4.32 0-7.66-3.17-7.66-8.22 0-5.35 3.5-8.48 7.92-8.48 4.64.03 7.74 3.37 7.74 8.22zm-12.67.17c0 3.5 2 6.14 4.85 6.14s4.85-2.61 4.85-6.21c0-2.71-1.35-6.14-4.79-6.14s-4.91 3.2-4.91 6.24zM484.25 73.15c0 1.65 0 3.1.13 4.36h-2.57l-.17-2.61h-.07a6 6 0 0 1-5.28 3c-2.51 0-5.51-1.39-5.51-7v-9.34h2.92v8.8c0 3 .92 5.08 3.56 5.08a4.2 4.2 0 0 0 3.83-2.64 4.25 4.25 0 0 0 .26-1.49v-9.8h2.9v11.62zM492.57 56.95v4.59h4.13v2.21h-4.16v8.61c0 2 .56 3.1 2.18 3.1a6.48 6.48 0 0 0 1.68-.2l.13 2.18a7.1 7.1 0 0 1-2.57.4 4 4 0 0 1-3.14-1.22c-.83-.86-1.12-2.28-1.12-4.16v-8.71h-2.48v-2.21h2.48v-3.83zM501.41 70.05c.07 3.93 2.57 5.54 5.48 5.54a10.5 10.5 0 0 0 4.42-.83l.5 2.08a12.94 12.94 0 0 1-5.31 1c-4.92 0-7.86-3.23-7.86-8.05s2.84-8.61 7.49-8.61c5.21 0 6.6 4.59 6.6 7.52a10.88 10.88 0 0 1-.1 1.35h-11.22zm8.52-2.08c0-1.85-.76-4.72-4-4.72-2.94 0-4.22 2.71-4.46 4.72h8.48zM515.93 74.54a7.6 7.6 0 0 0 3.83 1.16c2.11 0 3.1-1.06 3.1-2.38s-.83-2.15-3-2.94c-2.87-1-4.22-2.61-4.22-4.52 0-2.57 2.08-4.69 5.51-4.69a8 8 0 0 1 3.93 1l-.73 2.11a6.22 6.22 0 0 0-3.27-.92c-1.72 0-2.67 1-2.67 2.18s1 1.91 3 2.71c2.77 1.06 4.19 2.44 4.19 4.82 0 2.81-2.18 4.79-6 4.79a9.11 9.11 0 0 1-4.49-1.09zM378.83 22.12h-6V17.9h17.1v4.22h-6.07v18h-5v-18zM390.7 29.36c0-2.38-.07-3.93-.13-5.31h4.32l.17 3h.13a4.74 4.74 0 0 1 4.36-3.33 5.18 5.18 0 0 1 1.06.07v4.72a7.21 7.21 0 0 0-1.35-.13 3.23 3.23 0 0 0-3.43 2.54 6 6 0 0 0-.1 1.12v8.19h-5V29.36zM412.03 40.14l-.3-1.62h-.1a5.82 5.82 0 0 1-4.62 2 5 5 0 0 1-5.21-5c0-4.19 3.76-6.2 9.47-6.17v-.23c0-.86-.46-2.08-2.94-2.08a9.08 9.08 0 0 0-4.46 1.22l-.92-3.23a13.31 13.31 0 0 1 6.27-1.42c5.38 0 7.1 3.17 7.1 7v5.61a25 25 0 0 0 .23 3.93h-4.52zm-.59-7.62c-2.64 0-4.69.59-4.69 2.54a1.8 1.8 0 0 0 2 1.91 2.74 2.74 0 0 0 2.61-1.85 3.58 3.58 0 0 0 .1-.86v-1.75zM420.27 29.15c0-2-.07-3.73-.13-5.15h4.36l.23 2.21h.1a5.91 5.91 0 0 1 5-2.57c3.3 0 5.78 2.18 5.78 6.93v9.57h-5V31.2c0-2.08-.73-3.5-2.54-3.5a2.68 2.68 0 0 0-2.54 1.88 3.45 3.45 0 0 0-.2 1.25v9.31h-5v-11zM439.58 35.75a9.81 9.81 0 0 0 4.32 1.22c1.52 0 2.14-.53 2.14-1.35s-.49-1.22-2.38-1.85c-3.33-1.12-4.62-2.94-4.59-4.85 0-3 2.57-5.28 6.57-5.28a10.82 10.82 0 0 1 4.55.92l-.89 3.47a7.92 7.92 0 0 0-3.5-.92c-1.22 0-1.91.5-1.91 1.32s.63 1.16 2.61 1.85c3.07 1.06 4.36 2.61 4.39 5 0 3-2.37 5.21-7 5.21a11.42 11.42 0 0 1-5.19-1.13zM453.93 29.42c0-2.11-.07-3.93-.13-5.41h4.36l.23 2.24h.07a6.19 6.19 0 0 1 5.38-2.61c3.53 0 6.7 3.07 6.7 8.22 0 5.88-3.73 8.65-7.33 8.65a5 5 0 0 1-4.19-1.85h-.07v8h-5V29.42zm5 3.8a5 5 0 0 0 .1 1.06 3 3 0 0 0 2.94 2.38c2.18 0 3.46-1.82 3.46-4.55 0-2.57-1.15-4.52-3.4-4.52a3.15 3.15 0 0 0-3 2.54 3.86 3.86 0 0 0-.1.89v2.21zM489.7 31.89c0 5.91-4.19 8.61-8.52 8.61-4.72 0-8.35-3.1-8.35-8.32s3.43-8.55 8.61-8.55a7.85 7.85 0 0 1 8.26 8.26zm-11.68.17c0 2.77 1.16 4.85 3.3 4.85 1.95 0 3.2-1.95 3.2-4.85 0-2.41-.92-4.85-3.2-4.85s-3.3 2.47-3.3 4.85zM492.81 29.36c0-2.38-.07-3.93-.13-5.31H497l.17 3h.13a4.74 4.74 0 0 1 4.36-3.33 5.17 5.17 0 0 1 1.06.07v4.72a7.19 7.19 0 0 0-1.35-.13 3.23 3.23 0 0 0-3.43 2.54 6 6 0 0 0-.1 1.12v8.19h-5V29.36zM511.7 19.36v4.62h3.6v3.7h-3.6v5.84c0 1.95.46 2.84 2 2.84a8.2 8.2 0 0 0 1.48-.13v3.8a9.84 9.84 0 0 1-3.27.43 5.21 5.21 0 0 1-3.76-1.39c-.92-1-1.39-2.51-1.39-4.79v-6.6h-2.15v-3.7h2.09v-3.5zM527.33 40.14l-.3-1.62h-.1a5.82 5.82 0 0 1-4.62 2 5 5 0 0 1-5.21-5c0-4.19 3.76-6.2 9.47-6.17v-.23c0-.86-.46-2.08-2.94-2.08a9.07 9.07 0 0 0-4.46 1.22l-.92-3.23a13.32 13.32 0 0 1 6.27-1.42c5.38 0 7.1 3.17 7.1 7v5.61a24.86 24.86 0 0 0 .23 3.93h-4.52zm-.63-7.62c-2.64 0-4.69.59-4.69 2.54a1.8 1.8 0 0 0 2 1.91 2.74 2.74 0 0 0 2.61-1.85 3.63 3.63 0 0 0 .1-.86v-1.75zM540.92 19.36v4.62h3.6v3.7h-3.6v5.84c0 1.95.46 2.84 2 2.84a8.21 8.21 0 0 0 1.49-.13v3.8a9.84 9.84 0 0 1-3.27.43 5.22 5.22 0 0 1-3.76-1.39c-.92-1-1.39-2.51-1.39-4.79v-6.6h-2.15v-3.7h2.15v-3.5zM552.6 19.52a2.52 2.52 0 0 1-2.71 2.51 2.53 2.53 0 1 1 0-5 2.52 2.52 0 0 1 2.71 2.49zm-5.18 20.63V24h5v16.14h-5zM572.41 31.89c0 5.91-4.19 8.61-8.52 8.61-4.72 0-8.35-3.1-8.35-8.32s3.43-8.55 8.61-8.55a7.85 7.85 0 0 1 8.26 8.26zm-11.71.17c0 2.77 1.15 4.85 3.3 4.85 1.95 0 3.2-1.95 3.2-4.85 0-2.41-.92-4.85-3.2-4.85s-3.3 2.47-3.3 4.85zM575.5 29.15c0-2-.07-3.73-.13-5.15h4.33l.23 2.21h.1a5.91 5.91 0 0 1 5-2.57c3.3 0 5.78 2.18 5.78 6.93v9.57h-5V31.2c0-2.08-.73-3.5-2.54-3.5a2.68 2.68 0 0 0-2.54 1.88 3.43 3.43 0 0 0-.2 1.25v9.31h-5v-11zM606.85 34.43l-1.58 5.71h-5.21l6.8-22.25h6.6l6.9 22.25h-5.41l-1.72-5.71h-6.37zm5.64-3.76l-1.39-4.72c-.4-1.32-.79-3-1.12-4.29h-.07c-.33 1.32-.66 3-1 4.29l-1.32 4.72h4.92zM637.88 34.96c0 2.11.07 3.83.13 5.18h-4.31l-.23-2.28h-.1a5.76 5.76 0 0 1-5 2.64c-3.27 0-5.68-2-5.68-7v-9.47h5v8.68c0 2.34.76 3.76 2.51 3.76a2.7 2.7 0 0 0 2.51-1.75 2.8 2.8 0 0 0 .17-1.09v-9.6h5v11zM647.51 19.36v4.62h3.6v3.7h-3.6v5.84c0 1.95.46 2.84 2 2.84a8.2 8.2 0 0 0 1.48-.13v3.8a9.84 9.84 0 0 1-3.27.43 5.21 5.21 0 0 1-3.76-1.39c-.92-1-1.39-2.51-1.39-4.79v-6.6h-2.15v-3.7h2.15v-3.5zM654.01 16.71h5v9.21h.07a6 6 0 0 1 2-1.65 5.64 5.64 0 0 1 2.61-.63c3.2 0 5.64 2.21 5.64 7.06v9.44h-5v-8.88c0-2.11-.73-3.56-2.61-3.56a2.67 2.67 0 0 0-2.51 1.75 3.17 3.17 0 0 0-.17 1.12v9.57h-5V16.71zM689.29 31.89c0 5.91-4.19 8.61-8.52 8.61-4.72 0-8.35-3.1-8.35-8.32s3.43-8.55 8.61-8.55a7.85 7.85 0 0 1 8.26 8.26zm-11.68.17c0 2.77 1.15 4.85 3.3 4.85 1.95 0 3.2-1.95 3.2-4.85 0-2.41-.92-4.85-3.2-4.85s-3.3 2.47-3.3 4.85zM692.39 29.36c0-2.38-.07-3.93-.13-5.31h4.32l.17 3h.13a4.74 4.74 0 0 1 4.36-3.33 5.17 5.17 0 0 1 1.06.07v4.72a7.18 7.18 0 0 0-1.35-.13 3.23 3.23 0 0 0-3.43 2.54 5.88 5.88 0 0 0-.1 1.12v8.19h-5V29.36zM710.11 19.52a2.52 2.52 0 0 1-2.71 2.51 2.53 2.53 0 1 1 0-5 2.52 2.52 0 0 1 2.71 2.49zm-5.18 20.63V24h5v16.14h-5zM719.58 19.36v4.62h3.6v3.7h-3.6v5.84c0 1.95.46 2.84 2 2.84a8.21 8.21 0 0 0 1.49-.13v3.8a9.84 9.84 0 0 1-3.27.43 5.22 5.22 0 0 1-3.76-1.39c-.92-1-1.39-2.51-1.39-4.79v-6.6h-2.14v-3.7h2.19v-3.5zM730.01 24l2.41 7.92c.26 1 .59 2.15.79 3h.1c.23-.86.5-2.08.73-3l2-7.92h5.38l-3.76 10.63c-2.31 6.4-3.86 9-5.68 10.59a9.25 9.25 0 0 1-4.85 2.21l-1.06-4.26a6.33 6.33 0 0 0 2.18-.86 5.77 5.77 0 0 0 2.08-2 1.32 1.32 0 0 0 .26-.73 1.83 1.83 0 0 0-.23-.83L724.45 24h5.58z"/></g></svg>